<?xml  version="1.0" encoding="UTF-8"?>
<!DOCTYPE svg PUBLIC "-//W3C//DTD SVG 1.0//EN" "http://www.w3.org/TR/2001/REC-SVG-20010904/DTD/svg10.dtd" >
<svg xmlns="http://www.w3.org/2000/svg" >
<metadata>
<version>1.0</version>
<id><![CDATA[Trade Gothic W02 Cn 18 Obl]]></id>
<vendor>Monotype Imaging Inc.</vendor>
<credits>
<name>Fonts.com WebFonts</name>
<URL>http://webfonts.fonts.com</URL>
<role>Home of the Web fonts</role>
</credits>
<license>
<URL>http://webfonts.fonts.com/Legal</URL>
</license>
<copyright><![CDATA[Part of the digitally encoded machine readable outline data for producing the Typefaces provided is copyrighted © 2002 - 2007 Linotype GmbH, www.linotype.com. All rights reserved. This software is the property of Linotype GmbH, and may not be reproduced, used, displayed, modified, disclosed or transferred without the express written approval of Linotype GmbH.  The digitally encoded machine readable software for producing the Typefaces licensed to you is copyrighted (c) 1989 Adobe Systems. All rights reserved. This software is the property of Adobe Systems Incorporated and its licensors, and may not be reproduced, used, displayed, modified, disclosed, or transferred without the express written approval of Adobe. Trade Gothic is a trademark of Linotype GmbH and may be registered in certain jurisdictions. This typeface is original artwork of Jackson Burke. The design may be protected in certain jurisdictions.]]></copyright>
<trademark><![CDATA[Trade Gothic is a trademark of Linotype GmbH and may be registered in certain jurisdictions.]]></trademark>
<licensee>
<name></name>
</licensee>
</metadata>
<defs >
<font horiz-adv-x="417" id="a39984ef-4c91-4949-8937-873bca0dae3a">
<font-face font-family="" panose-1="2 11 5 6 4 3 3 9 0 4" ascent="950" descent="-216" units-per-em="1000" alphabetic="0">
</font-face>
<missing-glyph horiz-adv-x="0" />

<glyph unicode="&#xA;" />
<glyph unicode="&#xD;" horiz-adv-x="0" />
<glyph unicode=" " horiz-adv-x="222" />
<glyph unicode="!" horiz-adv-x="333" d="M228 94L208 0H124L144 94H228ZM280 722H364L238 214H186L280 722Z"  />
<glyph unicode="&quot;" horiz-adv-x="333" d="M355 722H417L361 466H299L355 722ZM228 722H290L234 466H172L228 722Z"  />
<glyph unicode="#" horiz-adv-x="444" d="M279 439L227 283H327L378 439H279ZM451 227H367L293 0H234L308 227H209L135 0H76L151 227H67L79 283H169L221 439H138L150 495H238L313 722H371L297 495H396L470 722H529L454 495H533L521 439H437L385 283H463L451 227Z"  />
<glyph unicode="$" horiz-adv-x="444" d="M335 662Q299 654 272 627T237 561Q234 549 234 537Q234 508 249 485T287 442L335 662ZM254 60Q299 64 330 95T372 176Q375 191 375 204Q375 240 357 267T311 320L254 60ZM152 198Q147 170 147 149Q147 116 159 93T204 60L268 354Q248 370 229 387T194 423T169 466T159 517Q159 536 163 553Q170 587 187 616T229 667T284 704T348 722L369 818H419L398 722Q457 713 485 676T513 581Q513 569 512 557T508 530H436Q439 548 439 565Q439 597 427 624T385 662L330 407Q351 390 372 372T410 332T438 284T449 225Q449 214 448 203T444 179Q427 101 372 54T242 0L216 -116H166L192 0Q132 9 103 47T74 142Q74 168 80 198H152Z"  />
<glyph unicode="%" horiz-adv-x="778" d="M228 566Q227 561 227 556T226 546Q226 514 246 492T303 470Q324 470 343 478T378 499T405 529T420 566Q421 571 421 576T422 586Q422 618 402 640T345 662Q324 662 305 654T270 633T243 603T228 566ZM477 156Q476 151 476 146T475 136Q475 104 495 82T552 60Q573 60 592 68T627 89T654 119T669 156Q670 161 670 166T671 176Q671 208 651 230T594 252Q573 252 554 244T519 223T492 193T477 156ZM770 732L195 -10H137L712 732H770ZM168 566Q175 598 193 626T236 676T293 709T358 722Q416 722 450 687T484 599Q484 591 483 583T480 566Q473 534 455 506T412 456T355 423T290 410Q232 410 198 445T164 533Q164 541 165 549T168 566ZM417 156Q424 188 442 216T485 266T542 299T607 312Q665 312 699 277T733 190Q733 172 729 156Q722 124 705 96T662 46T605 13T540 0Q482 0 448 35T413 123Q413 131 414 139T417 156Z"  />
<glyph unicode="&amp;" horiz-adv-x="556" d="M316 585Q310 556 310 533Q310 509 313 488T321 447Q367 488 397 526T438 612Q440 622 440 628Q440 650 429 664T400 678Q371 678 349 658T316 585ZM160 180Q156 164 156 145Q156 104 180 80T255 56Q285 56 316 74T369 116Q337 167 312 224T270 335Q253 321 236 303T203 264T177 223T160 180ZM556 346Q547 314 538 288T518 236T493 186T460 132Q486 91 531 54L478 0Q460 9 439 28T402 68Q367 34 322 12T232 -10Q160 -10 121 26T82 125Q82 136 83 148T87 174Q96 214 115 246T158 305T207 353T254 394Q248 415 243 450T238 521Q238 536 239 550T243 579Q260 657 304 694T402 732Q455 732 483 703T512 632Q512 619 509 606Q501 568 484 538T443 482T392 433T334 387Q365 276 420 188Q443 227 458 267T487 350L556 346Z"  />
<glyph unicode="&apos;" horiz-adv-x="222" d="M236 722H298L242 466H180L236 722Z"  />
<glyph unicode="(" horiz-adv-x="278" d="M166 -110Q140 -47 127 14T113 141Q113 181 118 223T133 311Q146 372 165 426T211 532T271 632T348 732L389 702Q314 604 268 509T199 311Q181 227 181 150Q181 36 220 -80L166 -110Z"  />
<glyph unicode=")" horiz-adv-x="278" d="M246 732Q272 669 285 608T299 481Q299 441 294 399T279 311Q266 250 247 196T201 90T141 -10T64 -110L22 -80Q97 18 143 113T213 311Q222 353 226 392T230 471Q230 530 221 586T191 702L246 732Z"  />
<glyph unicode="*" horiz-adv-x="444" d="M357 564L516 634L521 568L361 536L450 424L383 380L334 518L225 380L176 424L315 536L167 568L202 634L331 564L345 722H411L357 564Z"  />
<glyph unicode="+" horiz-adv-x="600" d="M379 520H445L396 293H623L609 227H382L333 0H267L316 227H89L103 293H330L379 520Z"  />
<glyph unicode="&#x2c;" horiz-adv-x="222" d="M173 94L151 -6L60 -150H30L109 0H69L89 94H173Z"  />
<glyph unicode="-" horiz-adv-x="333" d="M92 227L106 293H352L338 227H92Z"  />
<glyph unicode="." horiz-adv-x="222" d="M173 94L153 0H69L89 94H173Z"  />
<glyph unicode="/" horiz-adv-x="278" d="M-12 -10L380 732H446L53 -10H-12Z"  />
<glyph unicode="0" horiz-adv-x="444" d="M402 361Q417 430 424 480T431 567Q431 625 415 648T367 672Q342 672 320 657T277 605T237 510T198 361Q168 223 168 153Q168 96 185 73T232 50Q257 50 279 65T322 117T362 212T402 361ZM474 361Q453 263 427 193T370 78T301 12T219 -10Q159 -10 129 29T99 154Q99 235 126 361Q147 459 172 529T229 644T298 710T380 732Q440 732 470 693T501 566Q501 485 474 361Z"  />
<glyph unicode="1" horiz-adv-x="444" d="M266 0H193H106L118 60H206L332 640L240 632L250 676Q282 684 314 697T376 732H424L278 60H362L350 0H266Z"  />
<glyph unicode="2" horiz-adv-x="444" d="M48 0L60 60Q88 113 124 159T198 247T274 327T345 403T400 479T432 558Q434 569 435 579T437 598Q437 636 419 654T370 672Q327 672 291 637T232 520H166Q182 581 205 622T257 687T316 722T381 732Q441 732 475 700T509 605Q509 577 502 548Q492 503 472 467T424 398T361 331T288 259T208 171T126 60H400L388 0H48Z"  />
<glyph unicode="3" horiz-adv-x="444" d="M185 578Q195 610 211 638T249 687T301 720T365 732Q391 732 414 724T455 701T483 661T494 605Q494 583 488 556Q471 479 435 437T357 386V384Q399 369 415 337T431 265Q431 250 429 235T424 204Q412 148 389 108T335 42T270 3T201 -10Q140 -10 107 27T74 124Q74 135 75 147T79 172H145Q142 154 142 138Q142 50 222 50Q240 50 259 59T296 88T328 135T351 201Q358 232 358 259Q358 313 324 333T220 354L233 414Q273 414 303 420T355 441T391 483T415 552Q421 580 421 601Q421 639 404 655T357 672Q334 672 316 663T285 640T263 607T249 570L185 578Z"  />
<glyph unicode="4" horiz-adv-x="444" d="M140 224H303L396 656H394L140 224ZM483 722L375 224H450L437 164H362L327 0H255L290 164H59L66 198L378 722H411H483Z"  />
<glyph unicode="5" horiz-adv-x="444" d="M158 168Q157 162 157 155Q157 149 157 142Q157 125 160 109T170 79T191 58T224 50Q271 50 312 97T373 239Q383 286 383 322Q383 375 363 395T313 416Q282 416 252 396T206 346L153 356L256 722H510L491 662H301L239 442Q262 458 288 467T343 476Q393 476 424 440T456 329Q456 288 446 241Q432 179 408 132T353 54T287 6T215 -10Q182 -10 158 0T119 28T96 70T88 122Q88 141 91 162L158 168Z"  />
<glyph unicode="6" horiz-adv-x="444" d="M177 248Q164 187 164 145Q164 94 182 72T236 50Q257 50 276 58T311 86T342 138T366 217Q376 261 376 294Q376 343 357 360T311 378Q276 378 246 359T192 316L177 248ZM437 588V601Q437 624 432 638T417 659T398 669T377 672Q329 672 286 603T208 383Q235 406 267 422T331 438Q380 438 414 407T448 302Q448 263 438 216Q415 110 361 50T234 -10Q167 -10 132 22T97 141Q97 209 121 322Q145 431 174 508T237 635T310 708T392 732Q424 732 445 723T480 698T498 660T504 609V592L437 588Z"  />
<glyph unicode="7" horiz-adv-x="444" d="M216 722H540L532 684L174 0H98L451 662H203L216 722Z"  />
<glyph unicode="8" horiz-adv-x="444" d="M437 578Q440 590 440 601Q440 630 423 651T367 672Q344 672 325 664T293 643T270 612T257 578Q255 567 254 557T252 535Q252 497 268 468T312 418Q358 443 391 483T437 578ZM366 179Q370 196 370 215Q370 258 349 288T296 346Q271 330 248 313T206 276T174 232T154 179Q150 163 150 143Q150 107 169 79T232 50Q260 50 282 62T322 92T350 134T366 179ZM439 182Q430 143 411 108T363 47T298 6T219 -10Q149 -10 113 30T77 132Q77 156 83 182Q97 249 140 298T243 384Q212 414 195 445T177 518Q177 541 183 570Q190 606 209 635T255 686T314 720T380 732Q439 732 475 698T511 607Q511 587 507 570Q493 506 459 464T367 384Q402 354 423 317T444 231Q444 220 443 208T439 182Z"  />
<glyph unicode="9" horiz-adv-x="444" d="M422 474Q435 535 435 577Q435 628 417 650T363 672Q342 672 323 664T288 636T257 584T233 505Q223 461 223 428Q223 379 242 362T288 344Q323 344 353 363T407 406L422 474ZM163 134Q163 130 163 127T162 119Q162 97 167 84T182 63T201 53T222 50Q270 50 313 119T391 339Q364 316 332 300T268 284Q219 284 185 315T151 421Q151 460 161 506Q184 612 238 672T365 732Q432 732 467 700T502 581Q502 512 478 400Q454 291 425 214T362 87T289 14T207 -10Q143 -10 119 22T95 109Q95 114 95 119T96 130L163 134Z"  />
<glyph unicode=":" horiz-adv-x="222" d="M232 366L211 272H127L148 366H232ZM173 94L153 0H69L89 94H173Z"  />
<glyph unicode=";" horiz-adv-x="222" d="M232 366L211 272H127L148 366H232ZM173 94L151 -6L60 -150H30L109 0H69L89 94H173Z"  />
<glyph unicode="&lt;" horiz-adv-x="600" d="M560 3L90 235L101 285L671 517L656 448L194 260L575 72L560 3Z"  />
<glyph unicode="=" horiz-adv-x="600" d="M80 186H600L585 120H65L80 186ZM126 400H646L632 334H112L126 400Z"  />
<glyph unicode="&gt;" horiz-adv-x="600" d="M55 72L518 260L136 448L151 517L621 285L610 235L40 3L55 72Z"  />
<glyph unicode="?" horiz-adv-x="389" d="M215 94L195 0H111L131 94H215ZM177 214L188 264Q200 322 227 362T285 436T343 508T382 598Q385 611 385 621Q385 647 371 659T340 672Q323 672 309 664T284 644T264 616T250 586L193 598Q202 626 217 650T253 693T300 721T356 732Q399 732 428 708T458 634Q458 615 454 598Q445 556 428 525T390 467T346 418T303 371T266 319T241 254L233 214H177Z"  />
<glyph unicode="@" horiz-adv-x="800" d="M393 204Q426 204 459 225T519 279T567 349T594 416Q595 421 595 425T596 435Q596 465 578 487T533 510Q498 510 465 490T404 438T357 370T330 301Q327 286 327 273Q327 241 344 223T393 204ZM677 558H740L593 276Q577 245 572 222Q571 219 571 213Q571 197 588 197Q615 197 645 217T704 269T754 341T785 421Q791 451 791 477Q791 524 774 561T725 623T653 662T563 676Q497 676 436 651T325 583T240 484T190 363Q182 323 182 291Q182 237 200 192T251 115T329 64T431 46Q466 46 503 54T575 77T643 115T703 165H766Q733 124 693 92T607 37T513 2T417 -10Q349 -10 293 12T198 72T137 164T115 281Q115 321 124 363Q140 440 184 507T289 624T424 703T574 732Q635 732 686 715T774 665T832 587T853 488Q853 473 852 458T846 426Q832 362 798 309T720 218T631 159T550 138Q527 138 513 151T499 190Q499 193 499 196Q499 200 500 204L497 203Q471 179 434 159T361 138Q307 138 278 171T248 256Q248 265 249 274T252 294Q263 345 291 395T358 485T445 549T547 574Q582 574 607 556T642 496L677 558Z"  />
<glyph unicode="A" horiz-adv-x="444" d="M201 280H363L367 668H365L201 280ZM432 722L435 0H357L360 214H176L87 0H9L324 722H432Z"  />
<glyph unicode="B" horiz-adv-x="500" d="M233 412H277Q319 412 351 419T406 441T444 482T467 544Q469 555 470 565T472 584Q472 623 446 639T363 656H285L233 412ZM158 66H236Q307 66 350 98T409 200Q415 227 415 249Q415 297 387 321T296 346H218L158 66ZM222 722H299H414Q482 722 516 688T551 594Q551 571 545 544Q534 490 499 446T401 384L400 382Q449 368 471 335T493 254Q493 228 487 200Q465 99 398 50T212 0H144H66L222 722Z"  />
<glyph unicode="C" horiz-adv-x="500" d="M471 504Q473 520 474 533T475 559Q475 615 456 640T399 666Q365 666 337 650T284 598T240 504T202 361Q177 248 177 178Q177 112 199 84T267 56Q294 56 317 66T360 98T395 155T423 240H501Q474 119 410 55T252 -10Q181 -10 141 33T101 179Q101 216 106 261T124 361Q146 463 176 534T242 649T322 712T413 732Q482 732 518 692T554 568Q554 553 553 537T549 504H471Z"  />
<glyph unicode="D" horiz-adv-x="500" d="M158 66H200Q243 66 278 77T344 121T399 210T444 361Q455 409 459 447T464 515Q464 558 455 585T427 628T384 650T327 656H285L158 66ZM222 722H299H356Q399 722 434 712T493 679T530 619T543 526Q543 458 522 361Q499 257 468 188T396 77T306 18T200 0H144H66L222 722Z"  />
<glyph unicode="E" horiz-adv-x="444" d="M552 722L537 656H285L232 410H418L404 344H218L158 66H422L408 0H143H66L222 722H299H552Z"  />
<glyph unicode="F" horiz-adv-x="389" d="M222 722H299H532L517 656H285L232 410H406L392 344H218L144 0H66L222 722Z"  />
<glyph unicode="G" horiz-adv-x="500" d="M474 500Q476 516 477 531T479 560Q479 608 461 637T397 666Q364 666 337 651T285 599T241 505T202 361Q177 248 177 178Q177 112 199 84T265 56Q320 56 355 85T402 170L424 272H326L341 338H439H517L444 0H394L395 54Q366 24 331 7T250 -10Q180 -10 141 33T101 178Q101 215 106 260T124 361Q146 463 176 534T242 649T320 712T411 732Q452 732 480 718T525 681T549 626T556 559Q556 545 555 530T552 500H474Z"  />
<glyph unicode="H" horiz-adv-x="500" d="M300 722L232 410H444L512 722H590L434 0H356L430 344H218L144 0H66L222 722H300Z"  />
<glyph unicode="I" horiz-adv-x="222" d="M306 722L150 0H72L228 722H306Z"  />
<glyph unicode="J" horiz-adv-x="278" d="M368 722L250 180Q238 124 221 88T177 30T115 -1T31 -10Q23 -10 14 -8T-6 -4L13 64Q34 56 57 56Q104 56 129 79T169 162L290 722H368Z"  />
<glyph unicode="K" horiz-adv-x="444" d="M290 722L210 354H212L494 722H578L383 470L448 0H364L314 390H312L182 222L134 0H56L212 722H290Z"  />
<glyph unicode="L" horiz-adv-x="389" d="M300 722L158 66H392L378 0H143H66L222 722H300Z"  />
<glyph unicode="M" horiz-adv-x="611" d="M283 722H336L344 176H346L587 722H639H711L555 0H483L626 662H624L331 0H280L273 662H271L128 0H56L212 722H283Z"  />
<glyph unicode="N" horiz-adv-x="500" d="M290 722H334L405 190H407L522 722H600L444 0H360L271 628H269L134 0H56L212 722H290Z"  />
<glyph unicode="O" horiz-adv-x="500" d="M454 361Q478 475 478 540Q478 577 472 601T454 639T428 660T394 666Q368 666 342 653T292 606T245 512T202 361Q178 247 178 182Q178 145 184 121T202 83T228 62T262 56Q288 56 314 69T364 116T411 210T454 361ZM532 361Q510 260 480 190T414 75T335 10T247 -10Q179 -10 140 34T101 181Q101 218 106 262T124 361Q146 462 176 532T242 647T320 712T408 732Q476 732 515 687T554 539Q554 464 532 361Z"  />
<glyph unicode="P" horiz-adv-x="444" d="M218 392H300Q359 392 398 424T453 524Q455 536 456 546T458 567Q458 613 432 634T357 656H275L218 392ZM212 722H288H382Q456 722 496 683T537 577Q537 552 531 524Q521 479 500 443T447 380T378 340T296 326H204L134 0H56L212 722Z"  />
<glyph unicode="Q" horiz-adv-x="500" d="M310 204Q334 196 351 181T381 145Q401 180 419 232T454 361Q478 475 478 540Q478 577 472 601T454 639T428 660T394 666Q368 666 342 653T292 606T245 512T202 361Q178 247 178 182Q178 145 184 121T202 83T228 62T262 56Q282 56 300 63T339 88Q331 104 321 116T296 140L310 204ZM461 -56Q419 -54 397 -31T361 26Q335 7 306 -1T247 -10Q179 -10 140 34T101 181Q101 218 106 262T124 361Q146 462 176 532T242 647T320 712T408 732Q476 732 515 687T554 539Q554 464 532 361Q510 260 481 190T414 75Q418 64 423 54T436 34T453 19T476 12L461 -56Z"  />
<glyph unicode="R" horiz-adv-x="500" d="M231 406H299Q383 406 422 438T474 531Q479 556 479 572Q479 614 451 635T353 656H285L231 406ZM222 722H299H396Q471 722 515 686T559 583Q559 560 553 535Q540 474 502 427T399 358L444 0H362L320 342L217 338L144 0H66L222 722Z"  />
<glyph unicode="S" horiz-adv-x="444" d="M440 536Q443 554 443 571Q443 613 424 639T357 666Q312 666 279 640T237 571Q234 557 234 544Q234 513 250 489T289 443T340 402T391 356T431 300T447 225Q447 202 441 174Q422 87 364 39T216 -10Q145 -10 108 30T71 138Q71 164 77 194H149Q145 174 145 152Q145 107 168 82T239 56Q288 56 323 86T371 175Q374 190 374 203Q374 235 358 260T319 307T268 352T217 398T177 453T161 522Q161 539 166 564Q174 602 193 633T240 686T302 720T376 732Q443 732 480 695T517 587Q517 575 516 563T512 536H440Z"  />
<glyph unicode="T" horiz-adv-x="389" d="M537 722L522 656H374L233 0H155L296 656H148L163 722H309H388H537Z"  />
<glyph unicode="U" horiz-adv-x="500" d="M300 722L185 192Q182 178 180 165T178 138Q178 102 196 79T262 56Q294 56 317 67T355 96T381 140T397 192L512 722H590L475 190Q466 146 448 110T401 47T334 5T247 -10Q169 -10 134 27T99 126Q99 141 101 157T107 190L222 722H300Z"  />
<glyph unicode="V" horiz-adv-x="444" d="M250 722L253 150H255L506 722H584L258 0H186L172 722H250Z"  />
<glyph unicode="W" horiz-adv-x="611" d="M234 722L198 158H200L430 722H494L484 158H486L688 722H760L488 0H422L430 567H428L192 0H126L162 722H234Z"  />
<glyph unicode="X" horiz-adv-x="444" d="M260 722L314 466L472 722H556L341 384L430 0H346L279 302L98 0H14L253 384L176 722H260Z"  />
<glyph unicode="Y" horiz-adv-x="444" d="M256 722L311 406L500 722H584L328 306L262 0H184L250 306L172 722H256Z"  />
<glyph unicode="Z" horiz-adv-x="444" d="M556 722L544 668L146 66H414L400 0H44L56 56L445 656H209L224 722H556Z"  />
<glyph unicode="[" horiz-adv-x="278" d="M216 722H281H400L391 682H273L113 -60H231L222 -100H103H38L216 722Z"  />
<glyph unicode="\" horiz-adv-x="278" d="M219 -10L148 732H214L285 -10H219Z"  />
<glyph unicode="]" horiz-adv-x="278" d="M196 -100H130H12L21 -60H139L299 682H181L190 722H306H374L196 -100Z"  />
<glyph unicode="^" horiz-adv-x="600" d="M428 722H484L601 295H529L437 637L197 295H125L428 722Z"  />
<glyph unicode="_" horiz-adv-x="500" d="M-27 -125L-16 -75H483L472 -125H-27Z"  />
<glyph unicode="`" horiz-adv-x="222" d="M146 716H224L293 578H243L146 716Z"  />
<glyph unicode="a" horiz-adv-x="444" d="M353 280Q327 272 294 260T231 229T177 186T148 130Q145 115 145 103Q145 78 159 64T204 50Q233 50 262 67T315 104L353 280ZM143 378Q155 409 173 436T214 485T266 518T330 530Q390 530 421 503T452 425Q452 407 447 382L384 92Q375 48 375 22Q375 6 378 0H303V44Q290 33 274 24T241 7T208 -5T180 -10Q128 -10 99 16T70 90Q70 108 74 124Q84 172 116 208T190 271T278 314T366 340L374 377Q377 393 377 407Q377 437 362 453T319 470Q298 470 281 461T249 437T225 404T207 368L143 378Z"  />
<glyph unicode="b" horiz-adv-x="444" d="M171 100Q183 77 201 64T236 50Q258 50 278 60T317 95T351 159T380 260Q396 333 396 379Q396 430 379 450T329 470Q305 470 283 455T241 424L171 100ZM122 0H66Q77 23 87 56T108 140L234 722H306L254 482Q276 500 303 515T360 530Q383 530 402 522T436 497T459 452T467 384Q467 358 464 328T452 260Q435 185 412 134T362 50T304 4T243 -10Q208 -10 185 6T148 50L122 0Z"  />
<glyph unicode="c" horiz-adv-x="389" d="M355 366Q356 374 356 382T357 397Q357 438 341 454T295 470Q272 470 254 462T220 430T191 365T163 260Q144 171 144 123Q144 79 159 65T204 50Q221 50 236 55T264 73T289 108T313 164H383Q370 126 352 94T309 39T256 3T191 -10Q131 -10 103 23T74 127Q74 180 91 260Q121 401 173 465T308 530Q372 530 399 494T426 395Q426 388 426 381Q426 374 425 366H355Z"  />
<glyph unicode="d" horiz-adv-x="444" d="M385 424Q373 440 357 455T317 470Q294 470 274 460T237 425T204 361T176 260Q160 189 160 143Q160 91 178 71T228 50Q245 50 269 63T315 100L385 424ZM317 50H315Q290 22 260 6T195 -10Q172 -10 152 -3T118 22T96 67T88 134Q88 187 104 260Q120 335 143 386T193 470T251 516T312 530Q341 530 362 515T398 482L450 722H522L396 140Q386 95 382 65T378 13V0H310L317 50Z"  />
<glyph unicode="e" horiz-adv-x="389" d="M347 308Q358 363 358 396Q358 434 344 452T295 470Q275 470 258 462T225 436T197 386T173 308H347ZM160 248L154 219Q142 163 142 129Q142 86 160 68T214 50Q235 50 251 58T281 81T305 112T323 148L389 140Q378 111 360 84T316 36T259 3T191 -10Q131 -10 103 23T74 127Q74 180 91 260Q121 401 173 465T308 530Q370 530 398 492T426 386Q426 339 414 282L406 248H160Z"  />
<glyph unicode="f" horiz-adv-x="278" d="M130 520H210L233 626Q244 679 273 705T362 732Q376 732 390 730T417 726L405 670Q389 678 367 678Q341 678 325 663T304 623L282 520H366L353 460H269L170 0H98L197 460H117L130 520Z"  />
<glyph unicode="g" horiz-adv-x="444" d="M326 -42Q327 -39 327 -34Q327 -19 314 -9T280 7T235 18T190 28Q155 14 132 -3T104 -43Q103 -47 103 -50T102 -57Q102 -83 126 -99T202 -116Q262 -116 290 -95T326 -42ZM214 345Q207 311 207 285Q207 245 222 230T262 214Q278 214 293 220T321 242T346 283T366 345Q374 383 374 406Q374 444 359 460T319 476Q287 476 259 448T214 345ZM508 464Q502 466 497 466Q492 466 487 466Q473 466 462 461T438 446Q439 437 439 429T440 412Q440 398 439 382T432 346Q421 297 403 262T362 205T310 171T252 160Q240 160 229 162T205 164Q195 162 180 154T162 130Q162 128 162 127T161 123Q161 111 170 105T196 94T232 86T276 77Q300 72 321 65T358 47T384 20T394 -19Q394 -32 391 -48Q385 -74 369 -96T326 -134T265 -160T189 -170Q110 -170 71 -146T32 -80Q32 -70 35 -58Q43 -23 69 4T133 46Q115 52 103 66T91 101Q91 106 93 116Q99 145 124 162T176 185Q157 200 149 227T141 284Q141 297 142 309T146 334Q166 428 218 479T339 530Q365 530 390 519T424 482Q441 503 465 516T522 530L508 464Z"  />
<glyph unicode="h" horiz-adv-x="444" d="M228 722H300L244 463Q258 476 275 488T309 509T342 524T372 530Q416 530 439 510T463 444Q463 422 457 394L372 0H300L383 384Q388 409 388 423Q388 470 344 470Q318 470 290 453T231 406L144 0H72L228 722Z"  />
<glyph unicode="i" horiz-adv-x="222" d="M231 722H303L285 638H213L231 722ZM187 520H259L147 0H75L187 520Z"  />
<glyph unicode="j" horiz-adv-x="222" d="M234 722H306L288 638H216L234 722ZM-18 -106Q-12 -108 -7 -109T4 -110Q28 -110 44 -96T68 -46L190 520H262L138 -52Q124 -117 93 -143T7 -170Q-2 -170 -11 -169T-31 -166L-18 -106Z"  />
<glyph unicode="k" horiz-adv-x="389" d="M222 722H294L195 266H197L390 520H464L332 354L376 0H302L269 282H267L171 154L138 0H66L222 722Z"  />
<glyph unicode="l" horiz-adv-x="222" d="M231 722H303L147 0H75L231 722Z"  />
<glyph unicode="m" horiz-adv-x="667" d="M80 0L192 520H258L246 463Q272 488 307 509T381 530Q412 530 434 512T460 464Q487 488 522 509T595 530Q637 530 657 508T678 448Q678 429 674 410L586 0H514L600 400Q604 417 604 433Q604 454 594 462T561 470Q528 470 504 452T459 416L369 0H297L383 400Q387 416 387 430Q387 453 376 461T341 470Q324 470 310 465T284 452T262 435T242 416L152 0H80Z"  />
<glyph unicode="n" horiz-adv-x="444" d="M184 520H252L240 463Q255 476 273 488T308 509T342 524T372 530Q416 530 439 510T463 444Q463 422 457 394L372 0H300L383 384Q388 409 388 423Q388 470 344 470Q318 470 290 453T231 406L144 0H72L184 520Z"  />
<glyph unicode="o" horiz-adv-x="389" d="M163 260Q144 171 144 123Q144 79 159 65T204 50Q227 50 245 58T279 90T309 154T337 260Q356 348 356 395Q356 440 341 455T295 470Q272 470 254 462T220 430T191 365T163 260ZM91 260Q121 401 173 465T308 530Q368 530 397 497T426 392Q426 340 409 260Q378 119 326 55T191 -10Q131 -10 103 23T74 127Q74 180 91 260Z"  />
<glyph unicode="p" horiz-adv-x="444" d="M170 96Q183 80 198 65T238 50Q261 50 281 60T318 95T351 159T380 260Q395 332 395 376Q395 429 377 449T327 470Q310 470 286 457T240 420L170 96ZM239 470H241Q265 498 295 514T360 530Q383 530 402 522T436 497T459 452T467 384Q467 358 464 328T452 260Q435 185 412 134T362 50T304 4T243 -10Q214 -10 193 5T158 38L113 -170H41L190 520H250L239 470Z"  />
<glyph unicode="q" horiz-adv-x="444" d="M384 420Q373 443 355 456T319 470Q296 470 276 460T238 425T205 361T176 260Q160 187 160 140Q160 90 177 70T226 50Q250 50 272 65T314 96L384 420ZM418 520H478L329 -170H257L302 38Q280 20 252 5T195 -10Q172 -10 152 -3T118 22T96 67T88 134Q88 187 104 260Q120 335 143 386T193 470T251 516T312 530Q347 530 370 514T405 470H407L418 520Z"  />
<glyph unicode="r" horiz-adv-x="278" d="M178 520H250L236 457H238Q259 481 277 495T312 517T347 527T386 530L371 462Q351 462 332 458T295 444T258 416T218 370L138 0H66L178 520Z"  />
<glyph unicode="s" horiz-adv-x="389" d="M357 388Q355 422 342 446T285 470Q259 470 239 452T214 408Q212 398 212 393Q212 372 224 356T255 324T295 295T335 262T366 222T379 168Q379 160 378 152T375 134Q368 103 352 77T312 32T261 1T201 -10Q130 -10 100 26T65 128L134 142Q136 125 140 109T153 79T175 58T209 50Q224 50 238 56T266 73T288 98T301 129Q302 134 302 138T303 148Q303 171 291 189T261 222T221 252T181 284T150 323T138 374Q138 387 141 404Q147 429 161 452T198 492T246 520T303 530Q363 530 392 498T421 406L357 388Z"  />
<glyph unicode="t" horiz-adv-x="278" d="M120 520H190L228 694H300L262 520H358L345 460H249L170 96Q168 86 168 81Q168 64 178 54T211 44Q222 44 234 47T257 54L246 0Q229 -5 214 -7T175 -10Q134 -10 114 6T94 58Q94 76 100 102L177 460H107L120 520Z"  />
<glyph unicode="u" horiz-adv-x="444" d="M372 0H304L316 57Q300 44 282 32T247 11T213 -4T183 -10Q139 -10 116 10T93 75Q93 97 99 126L184 520H256L173 136Q168 111 168 96Q168 50 211 50Q237 50 265 67T324 114L412 520H484L372 0Z"  />
<glyph unicode="v" horiz-adv-x="389" d="M202 520L209 72H211L410 520H482L242 0H146L130 520H202Z"  />
<glyph unicode="w" horiz-adv-x="556" d="M198 520L189 138H191L358 520H426L429 138H431L582 520H650L430 0H370L367 404H365L188 0H128L130 520H198Z"  />
<glyph unicode="x" horiz-adv-x="333" d="M113 520H187L234 338L349 520H423L257 270L331 0H257L207 204L75 0H1L179 270L113 520Z"  />
<glyph unicode="y" horiz-adv-x="333" d="M188 520L200 122H202L368 520H442L213 11Q174 -75 125 -122T10 -170H-26L-13 -110H8Q51 -110 84 -81T140 4L114 520H188Z"  />
<glyph unicode="z" horiz-adv-x="333" d="M151 520H421L411 472L115 60H321L309 0H23L34 54L322 460H138L151 520Z"  />
<glyph unicode="{" horiz-adv-x="278" d="M87 331Q118 331 135 349T163 415L211 636Q222 684 253 708T326 732H390L381 692H329Q289 692 278 640L227 405Q222 382 212 365T188 337T160 320T131 312V310Q153 307 171 292T189 244Q189 232 186 217L136 -18Q133 -30 133 -39Q133 -70 164 -70H216L208 -110H144Q109 -110 88 -93T67 -41Q67 -29 70 -14L118 207Q121 220 122 230T123 248Q123 272 112 281T78 291L87 331Z"  />
<glyph unicode="|" horiz-adv-x="222" d="M236 732H302L141 -10H75L236 732Z"  />
<glyph unicode="}" horiz-adv-x="278" d="M324 291Q293 291 276 273T248 207L200 -14Q190 -62 159 -86T86 -110H22L30 -70H82Q122 -70 134 -18L184 217Q195 264 224 285T281 310V312Q258 315 240 331T222 380Q222 391 225 405L276 640Q277 645 277 649T278 659Q278 692 247 692H195L204 732H268Q303 732 323 715T344 664Q344 651 341 636L293 415Q290 402 289 392T288 374Q288 350 299 341T333 331L324 291Z"  />
<glyph unicode="~" horiz-adv-x="600" d="M600 281Q587 265 572 249T539 221T498 201T450 193Q424 193 397 202T342 226Q316 238 291 249T245 261Q214 261 188 239T138 189L111 239Q124 255 139 271T173 299T213 319T261 327Q287 327 314 318T369 294Q395 282 420 271T467 259Q498 259 523 281T573 331L600 281Z"  />
<glyph unicode="&#xA0;" horiz-adv-x="222" />
<glyph unicode="&#xA1;" horiz-adv-x="333" d="M217 426L237 520H321L301 426H217ZM165 -202H81L207 306H259L165 -202Z"  />
<glyph unicode="&#xA2;" horiz-adv-x="444" d="M345 477Q336 480 323 480Q300 480 282 472T248 440T219 375T191 270Q181 224 176 191T171 135Q171 123 172 114T176 97L345 477ZM209 63Q219 60 232 60Q249 60 264 65T292 83T317 118T341 174H411Q398 136 380 104T338 49T285 13T220 0Q209 0 201 1T184 5L131 -114H83L143 22Q102 55 102 138Q102 190 119 270Q150 411 202 475T336 540Q354 540 371 537L420 650H468L411 520Q434 503 444 474T454 404Q454 397 454 390Q454 384 453 376H383Q384 384 384 391T385 405Q385 431 378 446L209 63Z"  />
<glyph unicode="&#xA3;" horiz-adv-x="444" d="M44 58Q72 70 92 89T128 132T153 182T168 234Q174 263 176 284T181 330H103L116 390H182Q182 407 182 425T181 461Q181 483 182 505T189 551Q199 599 218 633T262 689T315 721T373 732Q411 732 436 721T476 691T497 647T503 592Q503 558 497 524H431Q434 549 434 572Q434 617 420 644T367 672Q329 672 303 649T263 562Q257 536 256 510T254 459V420V390H360L347 330H253Q250 310 249 289T243 246Q235 213 223 181T191 116Q207 92 227 75T276 58Q291 58 305 63T333 84T358 124T379 190H445Q432 132 416 94T377 32T327 0T262 -10Q227 -10 197 12T153 66Q127 39 96 17T29 -10L44 58Z"  />
<glyph unicode="&#xA4;" horiz-adv-x="444" d="M156 361Q152 342 152 322Q152 271 182 240T267 209Q299 209 328 220T380 252T420 300T444 361Q448 380 448 400Q448 451 418 482T333 513Q301 513 272 502T220 470T180 422T156 361ZM426 143L391 190Q360 166 324 156T253 145Q219 145 187 155T135 190L78 143L46 185L102 234Q91 248 86 269T81 313Q81 325 82 337T86 361Q94 396 112 431T157 488L122 537L173 579L209 532Q240 556 276 566T346 577Q380 577 412 567T465 532L521 579L554 537L497 488Q508 474 513 453T519 407Q519 386 514 361Q506 326 487 291T442 234L478 185L426 143Z"  />
<glyph unicode="&#xA5;" horiz-adv-x="444" d="M470 238H310L259 0H187L238 238H78L91 298H251L253 306L237 390H111L124 450H226L175 722H247L308 390L509 722H581L414 450H516L503 390H377L325 306L323 298H483L470 238Z"  />
<glyph unicode="&#xA6;" horiz-adv-x="222" d="M236 732H302L240 448H174L236 732ZM137 274H203L141 -10H75L137 274Z"  />
<glyph unicode="&#xA7;" horiz-adv-x="500" d="M215 396Q215 394 215 393T214 389Q214 370 229 339T266 279T314 228T361 206Q384 206 403 224T427 265Q428 268 428 275Q428 297 413 328T377 389T331 438T287 458Q258 458 240 441T215 396ZM476 614Q471 625 463 636T445 657T422 672T396 678Q361 678 343 663T319 619Q318 615 318 608Q318 587 331 565T364 517T407 466T450 412T483 356T497 297Q497 291 497 285Q497 279 495 273Q484 222 446 193T359 164Q373 142 384 117T395 63Q395 50 392 37Q386 11 371 -11T336 -50T291 -75T240 -84Q187 -84 154 -63T98 0L154 38Q164 9 189 -10T250 -30Q276 -30 298 -11T325 34Q326 39 326 48Q326 71 313 96T280 146T237 199T194 254T161 312T147 374Q147 387 150 401Q155 424 169 442T202 473T243 493T288 500Q271 521 261 543T251 593Q251 601 252 609T255 626Q259 647 271 666T302 700T346 723T400 732Q445 732 478 709T533 652L476 614Z"  />
<glyph unicode="&#xA8;" horiz-adv-x="222" d="M293 690H359L337 588H271L293 690ZM161 690H227L205 588H139L161 690Z"  />
<glyph unicode="&#xA9;" horiz-adv-x="800" d="M660 290Q628 218 569 175T441 131Q399 131 366 144T311 180T276 234T264 304Q264 332 270 362Q280 411 304 453T363 526T442 574T537 591Q604 591 648 556T692 452Q692 448 692 445T691 438H628V440Q628 479 601 505T525 531Q489 531 459 518T405 483T366 430T342 364Q340 352 339 341T337 318Q337 291 344 268T366 228T403 201T454 191Q504 191 542 219T596 290H660ZM411 50Q475 50 535 73T644 139T729 238T780 362Q784 381 786 398T788 433Q788 485 771 529T722 604T646 654T546 672Q481 672 421 648T311 583T226 485T176 362Q171 342 170 324T168 288Q168 235 185 192T234 117T311 68T411 50ZM398 -10Q332 -10 276 11T180 71T118 163T95 281Q95 320 104 362Q121 441 165 508T272 625T408 703T559 732Q625 732 680 711T776 651T838 559T861 441Q861 402 852 362Q835 282 791 214T684 97T548 19T398 -10Z"  />
<glyph unicode="&#xAA;" horiz-adv-x="266" d="M296 574Q281 569 263 562T227 544T196 520T180 492Q179 487 179 484T178 477Q178 452 212 452Q231 452 248 462T276 484L296 574ZM168 641Q182 678 212 705T287 732Q327 732 347 715T368 667Q368 656 365 643L327 469Q321 443 321 427Q321 420 323 414H271L269 432Q256 420 234 414T196 408Q162 408 143 424T124 470Q124 475 124 480Q124 486 126 492Q132 521 152 543T198 580T253 606T306 622L310 640Q311 645 311 649T312 658Q312 688 278 688Q252 688 237 672T213 635L168 641Z"  />
<glyph unicode="&#xAB;" horiz-adv-x="500" d="M372 106L282 260L439 414H507L346 260L440 106H372ZM228 106L138 260L295 414H363L202 260L296 106H228Z"  />
<glyph unicode="&#xAC;" horiz-adv-x="600" d="M566 334H112L126 400H581H646L585 120H519L566 334Z"  />
<glyph unicode="&#xAD;" horiz-adv-x="333" d="M92 227L106 293H352L338 227H92Z"  />
<glyph unicode="&#xAE;" horiz-adv-x="800" d="M408 388H480Q510 388 531 390T568 400T592 421T606 456Q608 461 608 465Q608 469 608 474Q608 497 589 508T525 520H437L408 388ZM355 142H289L383 576H548Q676 576 676 486Q676 478 675 470T672 453Q666 424 653 403T621 367T583 345T541 334L616 142H537L463 332H396L355 142ZM411 50Q475 50 535 73T644 139T729 238T780 362Q784 381 786 398T788 433Q788 485 771 529T722 604T646 654T546 672Q481 672 421 648T311 583T226 485T176 362Q171 342 170 324T168 288Q168 235 185 192T234 117T311 68T411 50ZM398 -10Q332 -10 276 11T180 71T118 163T95 281Q95 320 104 362Q121 441 165 508T272 625T408 703T559 732Q625 732 680 711T776 651T838 559T861 441Q861 402 852 362Q835 282 791 214T684 97T548 19T398 -10Z"  />
<glyph unicode="&#xAF;" horiz-adv-x="222" d="M110 614L121 662H387L376 614H110Z"  />
<glyph unicode="&#xB0;" horiz-adv-x="400" d="M422 584Q425 596 425 607Q425 640 404 663T348 686Q327 686 308 678T273 656T246 624T230 584Q227 572 227 561Q227 528 248 505T304 482Q325 482 344 490T379 512T406 544T422 584ZM178 584Q184 614 201 641T243 688T297 720T358 732Q412 732 444 699T477 615Q477 599 474 584Q467 554 450 527T408 480T355 448T294 436Q240 436 207 469T174 552Q174 560 175 568T178 584Z"  />
<glyph unicode="&#xB1;" horiz-adv-x="600" d="M54 66H574L560 0H40L54 66ZM379 520H445L408 350H635L621 284H394L357 114H291L328 284H101L115 350H342L379 520Z"  />
<glyph unicode="&#xB2;" horiz-adv-x="266" d="M85 292L96 342Q121 387 156 424T225 495T284 560T317 624Q318 629 318 633T319 643Q319 680 285 680Q260 680 240 665T206 605H156Q166 642 181 666T215 705T253 726T295 732Q334 732 357 713T380 655Q380 641 377 625Q368 584 342 549T282 481T215 415T156 344H318L307 292H85Z"  />
<glyph unicode="&#xB3;" horiz-adv-x="266" d="M167 636Q176 678 205 705T283 732Q317 732 341 713T366 655Q366 642 363 627Q360 612 354 596T338 566T314 541T281 526V524Q308 515 318 495T329 451Q329 431 325 415Q311 347 273 317T188 286Q143 286 122 308T100 366Q100 379 103 396H157Q156 391 156 387Q156 383 156 379Q156 361 165 350T201 338Q224 338 242 356T269 414Q272 429 272 441Q272 471 252 483T191 496L202 548H208Q250 548 273 563T307 624Q309 630 309 635Q309 640 309 645Q309 662 302 671T275 680Q250 680 238 669T221 636H167Z"  />
<glyph unicode="&#xB4;" horiz-adv-x="222" d="M229 578H179L306 716H384L229 578Z"  />
<glyph unicode="&#xB5;" horiz-adv-x="444" d="M372 0H304L316 57Q300 44 282 32T247 11T213 -4T183 -10Q159 -10 143 -4L107 -170H35L184 520H256L173 136Q168 111 168 96Q168 50 211 50Q237 50 265 67T324 114L412 520H484L372 0Z"  />
<glyph unicode="&#xB6;" horiz-adv-x="500" d="M288 340Q209 340 165 380T120 485Q120 496 121 506T125 528Q136 580 162 616T222 676T297 711T377 722H434H521H589H658L646 668H576L413 -84H347L510 668H425L262 -84H196L288 340Z"  />
<glyph unicode="&#xB7;" horiz-adv-x="222" d="M118 260Q123 280 140 294T177 309Q194 309 205 298T217 270Q217 264 216 260Q211 240 194 226T156 211Q139 211 128 221T117 249Q117 256 118 260Z"  />
<glyph unicode="&#xB8;" horiz-adv-x="222" d="M-11 -156Q-1 -161 14 -165T50 -170Q80 -170 100 -159T126 -129Q127 -126 127 -121Q127 -107 116 -97T81 -86Q69 -86 59 -89T37 -96L26 -82L104 0H142L83 -58L85 -60Q95 -54 117 -54Q144 -54 163 -67T182 -108Q182 -113 182 -117T180 -126Q175 -147 163 -163T134 -191T96 -209T53 -216Q24 -216 4 -213T-35 -200L-11 -156Z"  />
<glyph unicode="&#xB9;" horiz-adv-x="266" d="M127 340H173L244 668L195 664L203 700Q240 708 277 732H320L235 340H287L277 292H224H163H117L127 340Z"  />
<glyph unicode="&#xBA;" horiz-adv-x="233" d="M286 570Q291 595 294 613T297 645Q297 668 289 677T263 686Q250 686 240 681T222 663T207 628T192 570Q187 544 184 526T181 493Q181 470 189 462T213 454Q226 454 236 459T255 477T271 512T286 570ZM136 570Q154 655 186 693T273 732Q313 732 332 711T351 645Q351 613 342 570Q323 485 290 447T203 408Q126 408 126 493Q126 527 136 570Z"  />
<glyph unicode="&#xBB;" horiz-adv-x="500" d="M239 414L330 260L172 106H104L266 260L171 414H239ZM383 414L474 260L316 106H248L410 260L315 414H383Z"  />
<glyph unicode="&#xBC;" horiz-adv-x="666" d="M471 148H554L598 355H596L471 148ZM143 340H189L260 668L211 664L219 700Q256 708 293 732H336L251 340H303L293 292H241H179H133L143 340ZM88 -10L688 732H750L150 -10H88ZM671 433L610 148H660L648 96H598L578 0H522L542 96H403L413 141L596 433H616H671Z"  />
<glyph unicode="&#xBD;" horiz-adv-x="666" d="M143 340H189L260 668L211 664L219 700Q256 708 293 732H336L251 340H303L293 292H239H176H133L143 340ZM418 0L428 50Q454 95 489 132T557 203T616 268T649 332Q651 337 651 342Q651 347 651 352Q651 388 617 388Q592 388 573 373T539 313H489Q499 350 514 374T547 413T586 434T628 440Q667 440 690 421T713 363Q713 349 710 333Q701 292 675 257T615 189T548 123T489 52H651L640 0H418ZM84 -10L684 732H746L146 -10H84Z"  />
<glyph unicode="&#xBE;" horiz-adv-x="666" d="M471 148H554L598 355H596L471 148ZM187 636Q196 678 225 705T303 732Q337 732 361 713T386 655Q386 642 383 627Q380 612 374 596T358 566T334 541T301 526V524Q328 515 338 495T349 451Q349 431 345 415Q331 347 293 317T208 286Q163 286 142 308T120 366Q120 379 123 396H177Q176 391 176 387Q176 383 176 379Q176 361 185 350T221 338Q244 338 262 356T289 414Q292 429 292 441Q292 471 272 483T211 496L222 548H228Q270 548 293 563T327 624Q329 630 329 635Q329 640 329 645Q329 662 322 671T295 680Q270 680 258 669T241 636H187ZM84 -10L684 732H746L146 -10H84ZM671 433L610 148H660L648 96H598L578 0H522L542 96H403L413 141L596 433H616H671Z"  />
<glyph unicode="&#xBF;" horiz-adv-x="389" d="M286 426L306 520H390L370 426H286ZM324 306L313 256Q305 217 289 187T254 132T215 84T175 37T141 -15T119 -78Q116 -92 116 -102Q116 -128 130 -140T161 -152Q177 -152 191 -144T217 -124T237 -96T250 -66L308 -78Q299 -106 284 -130T248 -173T201 -201T145 -212Q102 -212 73 -188T43 -115Q43 -107 44 -98T47 -78Q56 -36 73 -5T111 53T154 102T197 149T234 201T259 266L268 306H324Z"  />
<glyph unicode="&#xC0;" horiz-adv-x="444" d="M201 280H363L367 668H365L201 280ZM432 722L435 0H357L360 214H176L87 0H9L324 722H432ZM296 898H374L443 760H393L296 898Z"  />
<glyph unicode="&#xC1;" horiz-adv-x="444" d="M201 280H363L367 668H365L201 280ZM432 722L435 0H357L360 214H176L87 0H9L324 722H432ZM379 760H329L456 898H534L379 760Z"  />
<glyph unicode="&#xC2;" horiz-adv-x="444" d="M201 280H363L367 668H365L201 280ZM432 722L435 0H357L360 214H176L87 0H9L324 722H432ZM381 898H449L521 760H457L408 862L315 760H251L381 898Z"  />
<glyph unicode="&#xC3;" horiz-adv-x="444" d="M201 280H363L367 668H365L201 280ZM432 722L435 0H357L360 214H176L87 0H9L324 722H432ZM247 770Q251 786 260 803T282 835T311 858T345 868Q364 868 380 861T411 846Q426 838 439 831T466 824Q488 824 498 839T515 874H551Q546 856 538 838T518 807T490 785T452 776Q436 776 421 783T391 798Q376 806 362 813T334 820Q313 820 301 805T283 770H247Z"  />
<glyph unicode="&#xC4;" horiz-adv-x="444" d="M201 280H363L367 668H365L201 280ZM432 722L435 0H357L360 214H176L87 0H9L324 722H432ZM443 872H509L487 770H421L443 872ZM311 872H377L355 770H289L311 872Z"  />
<glyph unicode="&#xC5;" horiz-adv-x="444" d="M201 280H363L367 668H365L201 280ZM432 722L435 0H357L360 214H176L87 0H9L324 722H432ZM353 855Q352 852 352 845Q352 827 364 815T395 802Q416 802 435 818T459 855Q460 858 460 865Q460 883 448 895T418 908Q397 908 378 892T353 855ZM311 855Q315 874 326 891T353 922T388 942T427 950Q462 950 482 929T503 875Q503 870 503 865T501 855Q497 835 486 818T460 788T425 768T386 760Q351 760 330 781T309 835Q309 840 309 845T311 855Z"  />
<glyph unicode="&#xC6;" horiz-adv-x="722" d="M418 280L504 678H502L260 280H418ZM830 722L815 656H577L524 410H710L696 344H510L450 66H700L686 0H435H358L404 214H220L92 0H9L455 722H512H590H830Z"  />
<glyph unicode="&#xC7;" horiz-adv-x="500" d="M127 -156Q138 -161 153 -165T189 -170Q219 -170 239 -159T265 -129Q266 -126 266 -121Q266 -107 255 -97T220 -86Q208 -86 198 -89T176 -96L165 -82L234 -9Q171 -4 136 39T101 179Q101 216 106 261T124 361Q146 463 176 534T242 649T322 712T413 732Q482 732 518 692T554 568Q554 553 553 537T549 504H471Q473 520 474 533T475 559Q475 615 456 640T399 666Q365 666 337 650T284 598T240 504T202 361Q177 248 177 178Q177 112 199 84T267 56Q294 56 317 66T360 98T395 155T423 240H501Q475 125 416 61T271 -9L222 -58L224 -60Q234 -54 256 -54Q283 -54 302 -67T321 -108Q321 -113 321 -117T319 -126Q314 -147 302 -163T273 -191T235 -209T192 -216Q163 -216 143 -213T103 -200L127 -156Z"  />
<glyph unicode="&#xC8;" horiz-adv-x="444" d="M552 722L537 656H285L232 410H418L404 344H218L158 66H422L408 0H143H66L222 722H299H552ZM302 898H380L449 760H399L302 898Z"  />
<glyph unicode="&#xC9;" horiz-adv-x="444" d="M552 722L537 656H285L232 410H418L404 344H218L158 66H422L408 0H143H66L222 722H299H552ZM385 760H335L462 898H540L385 760Z"  />
<glyph unicode="&#xCA;" horiz-adv-x="444" d="M552 722L537 656H285L232 410H418L404 344H218L158 66H422L408 0H143H66L222 722H299H552ZM387 898H455L527 760H463L414 862L321 760H257L387 898Z"  />
<glyph unicode="&#xCB;" horiz-adv-x="444" d="M552 722L537 656H285L232 410H418L404 344H218L158 66H422L408 0H143H66L222 722H299H552ZM449 872H515L493 770H427L449 872ZM317 872H383L361 770H295L317 872Z"  />
<glyph unicode="&#xCC;" horiz-adv-x="222" d="M306 722L150 0H72L228 722H306ZM186 897H264L333 759H283L186 897Z"  />
<glyph unicode="&#xCD;" horiz-adv-x="222" d="M306 722L150 0H72L228 722H306ZM268 760H218L345 898H423L268 760Z"  />
<glyph unicode="&#xCE;" horiz-adv-x="222" d="M306 722L150 0H72L228 722H306ZM270 898H338L410 760H346L297 862L204 760H140L270 898Z"  />
<glyph unicode="&#xCF;" horiz-adv-x="222" d="M306 722L150 0H72L228 722H306ZM332 872H398L376 770H310L332 872ZM200 872H266L244 770H178L200 872Z"  />
<glyph unicode="&#xD0;" horiz-adv-x="500" d="M352 410L338 344H218L158 66H200Q243 66 278 77T344 121T399 210T444 361Q455 409 459 447T464 515Q464 558 455 585T427 628T384 650T327 656H285L232 410H352ZM154 410L222 722H298H356Q399 722 434 712T493 679T530 619T543 526Q543 458 522 361Q499 257 468 188T396 77T306 18T200 0H143H66L140 344H86L100 410H154Z"  />
<glyph unicode="&#xD1;" horiz-adv-x="500" d="M290 722H334L405 190H407L522 722H600L444 0H360L271 628H269L134 0H56L212 722H290ZM275 770Q279 786 288 803T310 835T339 858T373 868Q392 868 408 861T439 846Q454 838 467 831T494 824Q516 824 526 839T543 874H579Q574 856 566 838T546 807T518 785T480 776Q464 776 449 783T419 798Q404 806 390 813T362 820Q341 820 329 805T311 770H275Z"  />
<glyph unicode="&#xD2;" horiz-adv-x="500" d="M454 361Q478 475 478 540Q478 577 472 601T454 639T428 660T394 666Q368 666 342 653T292 606T245 512T202 361Q178 247 178 182Q178 145 184 121T202 83T228 62T262 56Q288 56 314 69T364 116T411 210T454 361ZM532 361Q510 260 480 190T414 75T335 10T247 -10Q179 -10 140 34T101 181Q101 218 106 262T124 361Q146 462 176 532T242 647T320 712T408 732Q476 732 515 687T554 539Q554 464 532 361ZM324 898H402L471 760H421L324 898Z"  />
<glyph unicode="&#xD3;" horiz-adv-x="500" d="M454 361Q478 475 478 540Q478 577 472 601T454 639T428 660T394 666Q368 666 342 653T292 606T245 512T202 361Q178 247 178 182Q178 145 184 121T202 83T228 62T262 56Q288 56 314 69T364 116T411 210T454 361ZM532 361Q510 260 480 190T414 75T335 10T247 -10Q179 -10 140 34T101 181Q101 218 106 262T124 361Q146 462 176 532T242 647T320 712T408 732Q476 732 515 687T554 539Q554 464 532 361ZM407 760H357L484 898H562L407 760Z"  />
<glyph unicode="&#xD4;" horiz-adv-x="500" d="M454 361Q478 475 478 540Q478 577 472 601T454 639T428 660T394 666Q368 666 342 653T292 606T245 512T202 361Q178 247 178 182Q178 145 184 121T202 83T228 62T262 56Q288 56 314 69T364 116T411 210T454 361ZM532 361Q510 260 480 190T414 75T335 10T247 -10Q179 -10 140 34T101 181Q101 218 106 262T124 361Q146 462 176 532T242 647T320 712T408 732Q476 732 515 687T554 539Q554 464 532 361ZM409 898H477L549 760H485L436 862L343 760H279L409 898Z"  />
<glyph unicode="&#xD5;" horiz-adv-x="500" d="M454 361Q478 475 478 540Q478 577 472 601T454 639T428 660T394 666Q368 666 342 653T292 606T245 512T202 361Q178 247 178 182Q178 145 184 121T202 83T228 62T262 56Q288 56 314 69T364 116T411 210T454 361ZM532 361Q510 260 480 190T414 75T335 10T247 -10Q179 -10 140 34T101 181Q101 218 106 262T124 361Q146 462 176 532T242 647T320 712T408 732Q476 732 515 687T554 539Q554 464 532 361ZM275 770Q279 786 288 803T310 835T339 858T373 868Q392 868 408 861T439 846Q454 838 467 831T494 824Q516 824 526 839T543 874H579Q574 856 566 838T546 807T518 785T480 776Q464 776 449 783T419 798Q404 806 390 813T362 820Q341 820 329 805T311 770H275Z"  />
<glyph unicode="&#xD6;" horiz-adv-x="500" d="M454 361Q478 475 478 540Q478 577 472 601T454 639T428 660T394 666Q368 666 342 653T292 606T245 512T202 361Q178 247 178 182Q178 145 184 121T202 83T228 62T262 56Q288 56 314 69T364 116T411 210T454 361ZM532 361Q510 260 480 190T414 75T335 10T247 -10Q179 -10 140 34T101 181Q101 218 106 262T124 361Q146 462 176 532T242 647T320 712T408 732Q476 732 515 687T554 539Q554 464 532 361ZM471 872H537L515 770H449L471 872ZM339 872H405L383 770H317L339 872Z"  />
<glyph unicode="&#xD7;" horiz-adv-x="600" d="M404 260L570 48L512 0L346 213L88 0L50 48L308 260L142 472L200 520L366 307L624 520L662 472L404 260Z"  />
<glyph unicode="&#xD8;" horiz-adv-x="500" d="M461 627Q449 649 432 657T394 666Q368 666 342 653T292 606T245 512T202 361Q178 251 178 188Q178 183 178 178T179 167H181L461 627ZM192 100Q203 75 221 66T262 56Q288 56 314 69T364 116T411 210T454 361Q468 425 473 472T478 554V564H476L192 100ZM58 -120H4L121 70Q101 115 101 183Q101 254 124 361Q146 462 176 532T242 647T320 712T408 732Q470 732 505 698L570 804H624L533 656Q554 611 554 538Q554 464 532 361Q510 260 480 190T414 75T335 10T247 -10Q216 -10 192 -1T148 28L58 -120Z"  />
<glyph unicode="&#xD9;" horiz-adv-x="500" d="M300 722L185 192Q182 178 180 165T178 138Q178 102 196 79T262 56Q294 56 317 67T355 96T381 140T397 192L512 722H590L475 190Q466 146 448 110T401 47T334 5T247 -10Q169 -10 134 27T99 126Q99 141 101 157T107 190L222 722H300ZM324 898H402L471 760H421L324 898Z"  />
<glyph unicode="&#xDA;" horiz-adv-x="500" d="M300 722L185 192Q182 178 180 165T178 138Q178 102 196 79T262 56Q294 56 317 67T355 96T381 140T397 192L512 722H590L475 190Q466 146 448 110T401 47T334 5T247 -10Q169 -10 134 27T99 126Q99 141 101 157T107 190L222 722H300ZM407 760H357L484 898H562L407 760Z"  />
<glyph unicode="&#xDB;" horiz-adv-x="500" d="M300 722L185 192Q182 178 180 165T178 138Q178 102 196 79T262 56Q294 56 317 67T355 96T381 140T397 192L512 722H590L475 190Q466 146 448 110T401 47T334 5T247 -10Q169 -10 134 27T99 126Q99 141 101 157T107 190L222 722H300ZM409 898H477L549 760H485L436 862L343 760H279L409 898Z"  />
<glyph unicode="&#xDC;" horiz-adv-x="500" d="M300 722L185 192Q182 178 180 165T178 138Q178 102 196 79T262 56Q294 56 317 67T355 96T381 140T397 192L512 722H590L475 190Q466 146 448 110T401 47T334 5T247 -10Q169 -10 134 27T99 126Q99 141 101 157T107 190L222 722H300ZM471 872H537L515 770H449L471 872ZM339 872H405L383 770H317L339 872Z"  />
<glyph unicode="&#xDD;" horiz-adv-x="444" d="M256 722L311 406L500 722H584L328 306L262 0H184L250 306L172 722H256ZM379 760H329L456 898H534L379 760Z"  />
<glyph unicode="&#xDE;" horiz-adv-x="444" d="M183 230H265Q324 230 363 262T418 362Q420 374 421 384T423 405Q423 451 397 472T322 494H240L183 230ZM212 722H290L255 560H347Q421 560 461 521T502 415Q502 390 496 362Q486 317 465 281T412 218T343 178T261 164H169L134 0H56L212 722Z"  />
<glyph unicode="&#xDF;" horiz-adv-x="444" d="M197 580Q203 609 218 636T257 685T311 719T376 732Q437 732 470 698T503 603Q503 578 497 550Q484 491 458 458T393 404Q405 397 416 388T437 364T451 331T456 285Q456 250 446 206Q432 143 413 102T369 35T318 0T262 -10Q234 -10 210 2L223 64Q243 50 269 50Q284 50 298 56T325 78T350 122T371 194Q383 249 383 285Q383 330 364 349T301 368L314 428Q355 431 382 457T425 551Q428 565 429 576T430 598Q430 640 412 656T367 672Q332 672 305 647T269 580L144 0H72L197 580Z"  />
<glyph unicode="&#xE0;" horiz-adv-x="444" d="M353 280Q327 272 294 260T231 229T177 186T148 130Q145 115 145 103Q145 78 159 64T204 50Q233 50 262 67T315 104L353 280ZM143 378Q155 409 173 436T214 485T266 518T330 530Q390 530 421 503T452 425Q452 407 447 382L384 92Q375 48 375 22Q375 6 378 0H303V44Q290 33 274 24T241 7T208 -5T180 -10Q128 -10 99 16T70 90Q70 108 74 124Q84 172 116 208T190 271T278 314T366 340L374 377Q377 393 377 407Q377 437 362 453T319 470Q298 470 281 461T249 437T225 404T207 368L143 378ZM257 716H335L404 578H354L257 716Z"  />
<glyph unicode="&#xE1;" horiz-adv-x="444" d="M353 280Q327 272 294 260T231 229T177 186T148 130Q145 115 145 103Q145 78 159 64T204 50Q233 50 262 67T315 104L353 280ZM143 378Q155 409 173 436T214 485T266 518T330 530Q390 530 421 503T452 425Q452 407 447 382L384 92Q375 48 375 22Q375 6 378 0H303V44Q290 33 274 24T241 7T208 -5T180 -10Q128 -10 99 16T70 90Q70 108 74 124Q84 172 116 208T190 271T278 314T366 340L374 377Q377 393 377 407Q377 437 362 453T319 470Q298 470 281 461T249 437T225 404T207 368L143 378ZM340 578H290L417 716H495L340 578Z"  />
<glyph unicode="&#xE2;" horiz-adv-x="444" d="M353 280Q327 272 294 260T231 229T177 186T148 130Q145 115 145 103Q145 78 159 64T204 50Q233 50 262 67T315 104L353 280ZM143 378Q155 409 173 436T214 485T266 518T330 530Q390 530 421 503T452 425Q452 407 447 382L384 92Q375 48 375 22Q375 6 378 0H303V44Q290 33 274 24T241 7T208 -5T180 -10Q128 -10 99 16T70 90Q70 108 74 124Q84 172 116 208T190 271T278 314T366 340L374 377Q377 393 377 407Q377 437 362 453T319 470Q298 470 281 461T249 437T225 404T207 368L143 378ZM342 716H410L482 578H418L369 680L276 578H212L342 716Z"  />
<glyph unicode="&#xE3;" horiz-adv-x="444" d="M353 280Q327 272 294 260T231 229T177 186T148 130Q145 115 145 103Q145 78 159 64T204 50Q233 50 262 67T315 104L353 280ZM143 378Q155 409 173 436T214 485T266 518T330 530Q390 530 421 503T452 425Q452 407 447 382L384 92Q375 48 375 22Q375 6 378 0H303V44Q290 33 274 24T241 7T208 -5T180 -10Q128 -10 99 16T70 90Q70 108 74 124Q84 172 116 208T190 271T278 314T366 340L374 377Q377 393 377 407Q377 437 362 453T319 470Q298 470 281 461T249 437T225 404T207 368L143 378ZM208 588Q212 604 221 621T243 653T272 676T306 686Q325 686 341 679T372 664Q387 656 400 649T427 642Q449 642 459 657T476 692H512Q507 674 499 656T479 625T451 603T413 594Q397 594 382 601T352 616Q337 624 323 631T295 638Q274 638 262 623T244 588H208Z"  />
<glyph unicode="&#xE4;" horiz-adv-x="444" d="M353 280Q327 272 294 260T231 229T177 186T148 130Q145 115 145 103Q145 78 159 64T204 50Q233 50 262 67T315 104L353 280ZM143 378Q155 409 173 436T214 485T266 518T330 530Q390 530 421 503T452 425Q452 407 447 382L384 92Q375 48 375 22Q375 6 378 0H303V44Q290 33 274 24T241 7T208 -5T180 -10Q128 -10 99 16T70 90Q70 108 74 124Q84 172 116 208T190 271T278 314T366 340L374 377Q377 393 377 407Q377 437 362 453T319 470Q298 470 281 461T249 437T225 404T207 368L143 378ZM404 690H470L448 588H382L404 690ZM272 690H338L316 588H250L272 690Z"  />
<glyph unicode="&#xE5;" horiz-adv-x="444" d="M353 280Q327 272 294 260T231 229T177 186T148 130Q145 115 145 103Q145 78 159 64T204 50Q233 50 262 67T315 104L353 280ZM143 378Q155 409 173 436T214 485T266 518T330 530Q390 530 421 503T452 425Q452 407 447 382L384 92Q375 48 375 22Q375 6 378 0H303V44Q290 33 274 24T241 7T208 -5T180 -10Q128 -10 99 16T70 90Q70 108 74 124Q84 172 116 208T190 271T278 314T366 340L374 377Q377 393 377 407Q377 437 362 453T319 470Q298 470 281 461T249 437T225 404T207 368L143 378ZM314 673Q313 670 313 663Q313 645 325 633T356 620Q377 620 396 636T420 673Q421 676 421 683Q421 701 409 713T379 726Q358 726 339 710T314 673ZM272 673Q276 692 287 709T314 740T349 760T388 768Q423 768 443 747T464 693Q464 688 464 683T462 673Q458 653 447 636T421 606T386 586T347 578Q312 578 291 599T270 653Q270 658 270 663T272 673Z"  />
<glyph unicode="&#xE6;" horiz-adv-x="611" d="M569 308Q580 363 580 396Q580 434 566 452T517 470Q481 470 448 432T395 308H569ZM317 280Q297 272 268 260T211 229T159 186T130 130Q127 115 127 103Q127 78 141 64T186 50Q209 50 235 67T279 104L317 280ZM382 248L376 219Q367 177 367 147Q367 94 388 72T436 50Q457 50 473 58T503 81T527 112T545 148L611 140Q600 111 582 84T538 36T484 3T422 -10Q380 -10 350 5T308 61Q257 16 221 3T162 -10Q110 -10 81 16T52 90Q52 108 56 124Q66 172 97 208T169 271T253 314T330 340L338 377Q340 387 341 395T342 412Q342 441 329 455T291 470Q275 470 260 461T231 437T207 404T189 368L125 378Q137 409 155 436T196 485T248 518T311 530Q351 530 373 512T403 466Q434 499 466 514T530 530Q592 530 620 492T648 386Q648 339 636 282L628 248H382Z"  />
<glyph unicode="&#xE7;" horiz-adv-x="389" d="M72 -156Q83 -161 98 -165T134 -170Q164 -170 184 -159T210 -129Q211 -126 211 -121Q211 -107 200 -97T165 -86Q153 -86 143 -89T121 -96L110 -82L179 -9Q126 -6 100 27T74 127Q74 180 91 260Q121 401 173 465T308 530Q372 530 399 494T426 395Q426 388 426 381Q426 374 425 366H355Q356 374 356 382T357 397Q357 438 341 454T295 470Q272 470 254 462T220 430T191 365T163 260Q144 171 144 123Q144 79 159 65T204 50Q221 50 236 55T264 73T289 108T313 164H383Q360 94 319 48T217 -8L167 -58L169 -60Q179 -54 201 -54Q228 -54 247 -67T266 -108Q266 -113 266 -117T264 -126Q259 -147 247 -163T218 -191T180 -209T137 -216Q108 -216 88 -213T48 -200L72 -156Z"  />
<glyph unicode="&#xE8;" horiz-adv-x="389" d="M347 308Q358 363 358 396Q358 434 344 452T295 470Q275 470 258 462T225 436T197 386T173 308H347ZM160 248L154 219Q142 163 142 129Q142 86 160 68T214 50Q235 50 251 58T281 81T305 112T323 148L389 140Q378 111 360 84T316 36T259 3T191 -10Q131 -10 103 23T74 127Q74 180 91 260Q121 401 173 465T308 530Q370 530 398 492T426 386Q426 339 414 282L406 248H160ZM230 716H308L377 578H327L230 716Z"  />
<glyph unicode="&#xE9;" horiz-adv-x="389" d="M347 308Q358 363 358 396Q358 434 344 452T295 470Q275 470 258 462T225 436T197 386T173 308H347ZM160 248L154 219Q142 163 142 129Q142 86 160 68T214 50Q235 50 251 58T281 81T305 112T323 148L389 140Q378 111 360 84T316 36T259 3T191 -10Q131 -10 103 23T74 127Q74 180 91 260Q121 401 173 465T308 530Q370 530 398 492T426 386Q426 339 414 282L406 248H160ZM313 578H263L390 716H468L313 578Z"  />
<glyph unicode="&#xEA;" horiz-adv-x="389" d="M347 308Q358 363 358 396Q358 434 344 452T295 470Q275 470 258 462T225 436T197 386T173 308H347ZM160 248L154 219Q142 163 142 129Q142 86 160 68T214 50Q235 50 251 58T281 81T305 112T323 148L389 140Q378 111 360 84T316 36T259 3T191 -10Q131 -10 103 23T74 127Q74 180 91 260Q121 401 173 465T308 530Q370 530 398 492T426 386Q426 339 414 282L406 248H160ZM315 716H383L455 578H391L342 680L249 578H185L315 716Z"  />
<glyph unicode="&#xEB;" horiz-adv-x="389" d="M347 308Q358 363 358 396Q358 434 344 452T295 470Q275 470 258 462T225 436T197 386T173 308H347ZM160 248L154 219Q142 163 142 129Q142 86 160 68T214 50Q235 50 251 58T281 81T305 112T323 148L389 140Q378 111 360 84T316 36T259 3T191 -10Q131 -10 103 23T74 127Q74 180 91 260Q121 401 173 465T308 530Q370 530 398 492T426 386Q426 339 414 282L406 248H160ZM377 690H443L421 588H355L377 690ZM245 690H311L289 588H223L245 690Z"  />
<glyph unicode="&#xEC;" horiz-adv-x="222" d="M187 520H259L147 0H75L187 520ZM146 716H224L293 578H243L146 716Z"  />
<glyph unicode="&#xED;" horiz-adv-x="222" d="M187 520H259L147 0H75L187 520ZM229 578H179L306 716H384L229 578Z"  />
<glyph unicode="&#xEE;" horiz-adv-x="222" d="M187 520H259L147 0H75L187 520ZM231 716H299L371 578H307L258 680L165 578H101L231 716Z"  />
<glyph unicode="&#xEF;" horiz-adv-x="222" d="M187 520H259L147 0H75L187 520ZM293 690H359L337 588H271L293 690ZM161 690H227L205 588H139L161 690Z"  />
<glyph unicode="&#xF0;" horiz-adv-x="389" d="M163 260Q144 171 144 123Q144 79 159 65T204 50Q227 50 245 58T279 90T309 154T337 260Q356 348 356 395Q356 440 341 455T295 470Q272 470 254 462T220 430T191 365T163 260ZM354 722Q364 710 373 697T389 669L495 706L509 660L409 625Q422 589 427 549T433 464Q433 368 409 260Q378 119 326 55T191 -10Q131 -10 103 23T74 127Q74 180 91 260Q121 401 173 465T308 530Q323 530 336 528T355 521Q354 542 350 562T339 600L241 566L227 612L319 644Q303 675 283 700L354 722Z"  />
<glyph unicode="&#xF1;" horiz-adv-x="444" d="M184 520H252L240 463Q255 476 273 488T308 509T342 524T372 530Q416 530 439 510T463 444Q463 422 457 394L372 0H300L383 384Q388 409 388 423Q388 470 344 470Q318 470 290 453T231 406L144 0H72L184 520ZM208 588Q212 604 221 621T243 653T272 676T306 686Q325 686 341 679T372 664Q387 656 400 649T427 642Q449 642 459 657T476 692H512Q507 674 499 656T479 625T451 603T413 594Q397 594 382 601T352 616Q337 624 323 631T295 638Q274 638 262 623T244 588H208Z"  />
<glyph unicode="&#xF2;" horiz-adv-x="389" d="M163 260Q144 171 144 123Q144 79 159 65T204 50Q227 50 245 58T279 90T309 154T337 260Q356 348 356 395Q356 440 341 455T295 470Q272 470 254 462T220 430T191 365T163 260ZM91 260Q121 401 173 465T308 530Q368 530 397 497T426 392Q426 340 409 260Q378 119 326 55T191 -10Q131 -10 103 23T74 127Q74 180 91 260ZM230 716H308L377 578H327L230 716Z"  />
<glyph unicode="&#xF3;" horiz-adv-x="389" d="M163 260Q144 171 144 123Q144 79 159 65T204 50Q227 50 245 58T279 90T309 154T337 260Q356 348 356 395Q356 440 341 455T295 470Q272 470 254 462T220 430T191 365T163 260ZM91 260Q121 401 173 465T308 530Q368 530 397 497T426 392Q426 340 409 260Q378 119 326 55T191 -10Q131 -10 103 23T74 127Q74 180 91 260ZM313 578H263L390 716H468L313 578Z"  />
<glyph unicode="&#xF4;" horiz-adv-x="389" d="M163 260Q144 171 144 123Q144 79 159 65T204 50Q227 50 245 58T279 90T309 154T337 260Q356 348 356 395Q356 440 341 455T295 470Q272 470 254 462T220 430T191 365T163 260ZM91 260Q121 401 173 465T308 530Q368 530 397 497T426 392Q426 340 409 260Q378 119 326 55T191 -10Q131 -10 103 23T74 127Q74 180 91 260ZM315 716H383L455 578H391L342 680L249 578H185L315 716Z"  />
<glyph unicode="&#xF5;" horiz-adv-x="389" d="M163 260Q144 171 144 123Q144 79 159 65T204 50Q227 50 245 58T279 90T309 154T337 260Q356 348 356 395Q356 440 341 455T295 470Q272 470 254 462T220 430T191 365T163 260ZM91 260Q121 401 173 465T308 530Q368 530 397 497T426 392Q426 340 409 260Q378 119 326 55T191 -10Q131 -10 103 23T74 127Q74 180 91 260ZM181 588Q185 604 194 621T216 653T245 676T279 686Q298 686 314 679T345 664Q360 656 373 649T400 642Q422 642 432 657T449 692H485Q480 674 472 656T452 625T424 603T386 594Q370 594 355 601T325 616Q310 624 296 631T268 638Q247 638 235 623T217 588H181Z"  />
<glyph unicode="&#xF6;" horiz-adv-x="389" d="M163 260Q144 171 144 123Q144 79 159 65T204 50Q227 50 245 58T279 90T309 154T337 260Q356 348 356 395Q356 440 341 455T295 470Q272 470 254 462T220 430T191 365T163 260ZM91 260Q121 401 173 465T308 530Q368 530 397 497T426 392Q426 340 409 260Q378 119 326 55T191 -10Q131 -10 103 23T74 127Q74 180 91 260ZM377 690H443L421 588H355L377 690ZM245 690H311L289 588H223L245 690Z"  />
<glyph unicode="&#xF7;" horiz-adv-x="600" d="M334 464Q340 491 363 510T414 530Q437 530 452 516T468 478Q468 474 466 464Q460 437 437 418T386 398Q363 398 348 412T332 450Q332 454 334 464ZM246 56Q251 83 275 102T326 122Q350 122 364 107T379 69Q379 66 379 62Q379 59 378 56Q372 29 348 10T297 -10Q274 -10 259 5T244 42Q244 46 244 49T246 56ZM89 227L103 293H623L609 227H89Z"  />
<glyph unicode="&#xF8;" horiz-adv-x="389" d="M159 67Q166 57 177 54T204 50Q227 50 245 58T279 90T309 154T337 260Q346 303 350 335T357 389H355L159 67ZM343 451Q329 470 295 470Q272 470 254 462T220 430T191 365T163 260Q143 168 142 124H144L343 451ZM409 476Q425 444 425 390Q425 334 409 260Q378 119 326 55T191 -10Q147 -10 123 8L45 -120H-4L92 39Q74 72 74 127Q74 180 91 260Q121 401 173 465T308 530Q331 530 349 526T380 510L453 630H503L409 476Z"  />
<glyph unicode="&#xF9;" horiz-adv-x="444" d="M372 0H304L316 57Q300 44 282 32T247 11T213 -4T183 -10Q139 -10 116 10T93 75Q93 97 99 126L184 520H256L173 136Q168 111 168 96Q168 50 211 50Q237 50 265 67T324 114L412 520H484L372 0ZM257 716H335L404 578H354L257 716Z"  />
<glyph unicode="&#xFA;" horiz-adv-x="444" d="M372 0H304L316 57Q300 44 282 32T247 11T213 -4T183 -10Q139 -10 116 10T93 75Q93 97 99 126L184 520H256L173 136Q168 111 168 96Q168 50 211 50Q237 50 265 67T324 114L412 520H484L372 0ZM340 578H290L417 716H495L340 578Z"  />
<glyph unicode="&#xFB;" horiz-adv-x="444" d="M372 0H304L316 57Q300 44 282 32T247 11T213 -4T183 -10Q139 -10 116 10T93 75Q93 97 99 126L184 520H256L173 136Q168 111 168 96Q168 50 211 50Q237 50 265 67T324 114L412 520H484L372 0ZM342 716H410L482 578H418L369 680L276 578H212L342 716Z"  />
<glyph unicode="&#xFC;" horiz-adv-x="444" d="M372 0H304L316 57Q300 44 282 32T247 11T213 -4T183 -10Q139 -10 116 10T93 75Q93 97 99 126L184 520H256L173 136Q168 111 168 96Q168 50 211 50Q237 50 265 67T324 114L412 520H484L372 0ZM404 690H470L448 588H382L404 690ZM272 690H338L316 588H250L272 690Z"  />
<glyph unicode="&#xFD;" horiz-adv-x="333" d="M188 520L200 122H202L368 520H442L213 11Q174 -75 125 -122T10 -170H-26L-13 -110H8Q51 -110 84 -81T140 4L114 520H188ZM285 578H235L362 716H440L285 578Z"  />
<glyph unicode="&#xFE;" horiz-adv-x="444" d="M170 96Q183 80 198 65T238 50Q261 50 281 60T318 95T351 159T380 260Q395 332 395 376Q395 429 377 449T327 470Q310 470 286 457T240 420L170 96ZM250 482H252Q271 501 298 515T360 530Q383 530 402 522T436 497T459 452T467 384Q467 358 464 328T452 260Q435 185 412 134T362 50T304 4T243 -10Q214 -10 193 5T158 38L113 -170H41L234 722H302L250 482Z"  />
<glyph unicode="&#xFF;" horiz-adv-x="333" d="M188 520L200 122H202L368 520H442L213 11Q174 -75 125 -122T10 -170H-26L-13 -110H8Q51 -110 84 -81T140 4L114 520H188ZM349 690H415L393 588H327L349 690ZM217 690H283L261 588H195L217 690Z"  />
<glyph unicode="&#x100;" horiz-adv-x="444" d="M201 280H363L367 668H365L201 280ZM432 722L435 0H357L360 214H176L87 0H9L324 722H432ZM254 796L265 844H531L520 796H254Z"  />
<glyph unicode="&#x101;" horiz-adv-x="444" d="M353 280Q327 272 294 260T231 229T177 186T148 130Q145 115 145 103Q145 78 159 64T204 50Q233 50 262 67T315 104L353 280ZM143 378Q155 409 173 436T214 485T266 518T330 530Q390 530 421 503T452 425Q452 407 447 382L384 92Q375 48 375 22Q375 6 378 0H303V44Q290 33 274 24T241 7T208 -5T180 -10Q128 -10 99 16T70 90Q70 108 74 124Q84 172 116 208T190 271T278 314T366 340L374 377Q377 393 377 407Q377 437 362 453T319 470Q298 470 281 461T249 437T225 404T207 368L143 378ZM209 614L220 662H486L475 614H209Z"  />
<glyph unicode="&#x102;" horiz-adv-x="444" d="M201 280H363L367 668H365L201 280ZM432 722L435 0H357L360 214H176L87 0H9L324 722H432ZM320 892Q319 887 319 877Q319 843 340 828T398 812Q440 812 463 833T502 892H540Q522 831 480 798T377 764Q328 764 304 792T280 865Q280 872 280 878T282 892H320Z"  />
<glyph unicode="&#x103;" horiz-adv-x="444" d="M353 280Q327 272 294 260T231 229T177 186T148 130Q145 115 145 103Q145 78 159 64T204 50Q233 50 262 67T315 104L353 280ZM143 378Q155 409 173 436T214 485T266 518T330 530Q390 530 421 503T452 425Q452 407 447 382L384 92Q375 48 375 22Q375 6 378 0H303V44Q290 33 274 24T241 7T208 -5T180 -10Q128 -10 99 16T70 90Q70 108 74 124Q84 172 116 208T190 271T278 314T366 340L374 377Q377 393 377 407Q377 437 362 453T319 470Q298 470 281 461T249 437T225 404T207 368L143 378ZM273 710Q272 705 272 695Q272 661 293 646T351 630Q393 630 416 651T455 710H493Q475 649 433 616T330 582Q281 582 257 610T233 683Q233 690 233 696T235 710H273Z"  />
<glyph unicode="&#x104;" horiz-adv-x="444" d="M432 722L435 0H404Q392 -4 378 -10Q349 -21 322 -36T273 -70T246 -115Q245 -120 245 -124T244 -132Q244 -152 257 -160T293 -168Q307 -168 322 -164T353 -154T383 -140T408 -127L417 -159Q382 -180 339 -197T258 -214Q229 -214 208 -199T187 -151Q187 -140 190 -128Q198 -90 225 -65T288 -22Q321 -7 357 1L360 214H176L87 0H9L324 722H432ZM201 280H363L367 668H365L201 280Z"  />
<glyph unicode="&#x105;" horiz-adv-x="444" d="M143 378Q155 409 173 436T214 485T266 518T330 530Q390 530 421 503T452 425Q452 407 447 382L384 92Q375 48 375 22Q375 6 378 0H363Q352 -5 331 -13Q307 -23 283 -39T240 -79T221 -133Q221 -151 232 -159T264 -168Q288 -168 308 -160T353 -137L363 -169Q330 -190 302 -202T238 -214Q206 -214 185 -198T164 -150Q164 -119 179 -94T217 -49T265 -17Q289 -6 307 0H305V45Q290 33 274 24T241 7T208 -5T180 -10Q128 -10 99 16T70 90Q70 108 74 124Q84 172 116 208T190 271T278 314T366 340L374 377Q377 393 377 407Q377 437 362 453T319 470Q298 470 281 461T249 437T225 404T207 368L143 378ZM353 280Q327 272 294 260T231 229T177 186T148 130Q145 115 145 103Q145 78 159 64T204 50Q233 50 262 67T315 104L353 280Z"  />
<glyph unicode="&#x106;" horiz-adv-x="500" d="M471 504Q473 520 474 533T475 559Q475 615 456 640T399 666Q365 666 337 650T284 598T240 504T202 361Q177 248 177 178Q177 112 199 84T267 56Q294 56 317 66T360 98T395 155T423 240H501Q474 119 410 55T252 -10Q181 -10 141 33T101 179Q101 216 106 261T124 361Q146 463 176 534T242 649T322 712T413 732Q482 732 518 692T554 568Q554 553 553 537T549 504H471ZM404 760H354L481 898H559L404 760Z"  />
<glyph unicode="&#x107;" horiz-adv-x="389" d="M355 366Q356 374 356 382T357 397Q357 438 341 454T295 470Q272 470 254 462T220 430T191 365T163 260Q144 171 144 123Q144 79 159 65T204 50Q221 50 236 55T264 73T289 108T313 164H383Q370 126 352 94T309 39T256 3T191 -10Q131 -10 103 23T74 127Q74 180 91 260Q121 401 173 465T308 530Q372 530 399 494T426 395Q426 388 426 381Q426 374 425 366H355ZM312 578H262L389 716H467L312 578Z"  />
<glyph unicode="&#x108;" horiz-adv-x="500" d="M471 504Q473 520 474 533T475 559Q475 615 456 640T399 666Q365 666 337 650T284 598T240 504T202 361Q177 248 177 178Q177 112 199 84T267 56Q294 56 317 66T360 98T395 155T423 240H501Q474 119 410 55T252 -10Q181 -10 141 33T101 179Q101 216 106 261T124 361Q146 463 176 534T242 649T322 712T413 732Q482 732 518 692T554 568Q554 553 553 537T549 504H471ZM403 898H471L543 760H479L430 862L337 760H273L403 898Z"  />
<glyph unicode="&#x109;" horiz-adv-x="389" d="M355 366Q356 374 356 382T357 397Q357 438 341 454T295 470Q272 470 254 462T220 430T191 365T163 260Q144 171 144 123Q144 79 159 65T204 50Q221 50 236 55T264 73T289 108T313 164H383Q370 126 352 94T309 39T256 3T191 -10Q131 -10 103 23T74 127Q74 180 91 260Q121 401 173 465T308 530Q372 530 399 494T426 395Q426 388 426 381Q426 374 425 366H355ZM310 716H378L450 578H386L337 680L244 578H180L310 716Z"  />
<glyph unicode="&#x10A;" horiz-adv-x="500" d="M471 504Q473 520 474 533T475 559Q475 615 456 640T399 666Q365 666 337 650T284 598T240 504T202 361Q177 248 177 178Q177 112 199 84T267 56Q294 56 317 66T360 98T395 155T423 240H501Q474 119 410 55T252 -10Q181 -10 141 33T101 179Q101 216 106 261T124 361Q146 463 176 534T242 649T322 712T413 732Q482 732 518 692T554 568Q554 553 553 537T549 504H471ZM401 872H467L445 770H379L401 872Z"  />
<glyph unicode="&#x10B;" horiz-adv-x="389" d="M355 366Q356 374 356 382T357 397Q357 438 341 454T295 470Q272 470 254 462T220 430T191 365T163 260Q144 171 144 123Q144 79 159 65T204 50Q221 50 236 55T264 73T289 108T313 164H383Q370 126 352 94T309 39T256 3T191 -10Q131 -10 103 23T74 127Q74 180 91 260Q121 401 173 465T308 530Q372 530 399 494T426 395Q426 388 426 381Q426 374 425 366H355ZM305 690H371L349 588H283L305 690Z"  />
<glyph unicode="&#x10C;" horiz-adv-x="500" d="M471 504Q473 520 474 533T475 559Q475 615 456 640T399 666Q365 666 337 650T284 598T240 504T202 361Q177 248 177 178Q177 112 199 84T267 56Q294 56 317 66T360 98T395 155T423 240H501Q474 119 410 55T252 -10Q181 -10 141 33T101 179Q101 216 106 261T124 361Q146 463 176 534T242 649T322 712T413 732Q482 732 518 692T554 568Q554 553 553 537T549 504H471ZM305 898H369L418 796L511 898H575L445 760H377L305 898Z"  />
<glyph unicode="&#x10D;" horiz-adv-x="389" d="M355 366Q356 374 356 382T357 397Q357 438 341 454T295 470Q272 470 254 462T220 430T191 365T163 260Q144 171 144 123Q144 79 159 65T204 50Q221 50 236 55T264 73T289 108T313 164H383Q370 126 352 94T309 39T256 3T191 -10Q131 -10 103 23T74 127Q74 180 91 260Q121 401 173 465T308 530Q372 530 399 494T426 395Q426 388 426 381Q426 374 425 366H355ZM206 716H270L319 614L412 716H476L346 578H278L206 716Z"  />
<glyph unicode="&#x10E;" horiz-adv-x="500" d="M158 66H200Q243 66 278 77T344 121T399 210T444 361Q455 409 459 447T464 515Q464 558 455 585T427 628T384 650T327 656H285L158 66ZM222 722H299H356Q399 722 434 712T493 679T530 619T543 526Q543 458 522 361Q499 257 468 188T396 77T306 18T200 0H144H66L222 722ZM269 898H333L382 796L475 898H539L409 760H341L269 898Z"  />
<glyph unicode="&#x10F;" horiz-adv-x="444" d="M385 424Q373 440 357 455T317 470Q294 470 274 460T237 425T204 361T176 260Q160 189 160 143Q160 91 178 71T228 50Q245 50 269 63T315 100L385 424ZM317 50H315Q290 22 260 6T195 -10Q172 -10 152 -3T118 22T96 67T88 134Q88 187 104 260Q120 335 143 386T193 470T251 516T312 530Q341 530 362 515T398 482L450 722H522L396 140Q386 95 382 65T378 13V0H310L317 50ZM633 722L617 649L557 560H530L582 649H546L562 722H633Z"  />
<glyph unicode="&#x110;" horiz-adv-x="500" d="M352 410L338 344H218L158 66H200Q243 66 278 77T344 121T399 210T444 361Q455 409 459 447T464 515Q464 558 455 585T427 628T384 650T327 656H285L232 410H352ZM154 410L222 722H298H356Q399 722 434 712T493 679T530 619T543 526Q543 458 522 361Q499 257 468 188T396 77T306 18T200 0H143H66L140 344H86L100 410H154Z"  />
<glyph unicode="&#x111;" horiz-adv-x="444" d="M317 50H315Q290 22 260 6T195 -10Q172 -10 152 -3T118 22T96 67T88 134Q88 187 104 260Q120 335 143 386T193 470T251 516T312 530Q341 530 362 515T398 482L421 590H299L311 646H433L450 722H522L505 646H558L546 590H493L396 140Q386 95 382 65T378 13V0H310L317 50ZM385 424Q373 440 357 455T317 470Q294 470 274 460T237 425T204 361T176 260Q160 189 160 143Q160 91 178 71T228 50Q245 50 269 63T315 100L385 424Z"  />
<glyph unicode="&#x112;" horiz-adv-x="444" d="M552 722L537 656H285L232 410H418L404 344H218L158 66H422L408 0H143H66L222 722H299H552ZM260 796L271 844H537L526 796H260Z"  />
<glyph unicode="&#x113;" horiz-adv-x="389" d="M347 308Q358 363 358 396Q358 434 344 452T295 470Q275 470 258 462T225 436T197 386T173 308H347ZM160 248L154 219Q142 163 142 129Q142 86 160 68T214 50Q235 50 251 58T281 81T305 112T323 148L389 140Q378 111 360 84T316 36T259 3T191 -10Q131 -10 103 23T74 127Q74 180 91 260Q121 401 173 465T308 530Q370 530 398 492T426 386Q426 339 414 282L406 248H160ZM185 614L196 662H462L451 614H185Z"  />
<glyph unicode="&#x114;" horiz-adv-x="444" d="M552 722L537 656H285L232 410H418L404 344H218L158 66H422L408 0H143H66L222 722H299H552ZM324 892Q323 887 323 877Q323 843 344 828T402 812Q444 812 467 833T506 892H544Q526 831 484 798T381 764Q332 764 308 792T284 865Q284 872 284 878T286 892H324Z"  />
<glyph unicode="&#x115;" horiz-adv-x="389" d="M347 308Q358 363 358 396Q358 434 344 452T295 470Q275 470 258 462T225 436T197 386T173 308H347ZM160 248L154 219Q142 163 142 129Q142 86 160 68T214 50Q235 50 251 58T281 81T305 112T323 148L389 140Q378 111 360 84T316 36T259 3T191 -10Q131 -10 103 23T74 127Q74 180 91 260Q121 401 173 465T308 530Q370 530 398 492T426 386Q426 339 414 282L406 248H160ZM250 710Q249 705 249 695Q249 661 270 646T328 630Q370 630 393 651T432 710H470Q452 649 410 616T307 582Q258 582 234 610T210 683Q210 690 210 696T212 710H250Z"  />
<glyph unicode="&#x116;" horiz-adv-x="444" d="M552 722L537 656H285L232 410H418L404 344H218L158 66H422L408 0H143H66L222 722H299H552ZM380 872H446L424 770H358L380 872Z"  />
<glyph unicode="&#x117;" horiz-adv-x="389" d="M347 308Q358 363 358 396Q358 434 344 452T295 470Q275 470 258 462T225 436T197 386T173 308H347ZM160 248L154 219Q142 163 142 129Q142 86 160 68T214 50Q235 50 251 58T281 81T305 112T323 148L389 140Q378 111 360 84T316 36T259 3T191 -10Q131 -10 103 23T74 127Q74 180 91 260Q121 401 173 465T308 530Q370 530 398 492T426 386Q426 339 414 282L406 248H160ZM305 690H371L349 588H283L305 690Z"  />
<glyph unicode="&#x118;" horiz-adv-x="444" d="M552 722L537 656H285L232 410H418L404 344H218L158 66H422L408 0H372Q360 -4 346 -10Q317 -21 290 -36T241 -70T214 -115Q213 -120 213 -124T212 -132Q212 -152 225 -160T261 -168Q275 -168 290 -164T321 -154T351 -140T376 -127L385 -159Q350 -180 307 -197T226 -214Q197 -214 176 -199T155 -151Q155 -140 158 -128Q166 -90 193 -65T256 -22Q286 -8 318 0H138H66L222 722H294H552Z"  />
<glyph unicode="&#x119;" horiz-adv-x="389" d="M160 248L154 219Q142 163 142 129Q142 86 160 68T214 50Q235 50 251 58T281 81T305 112T323 148L389 140Q378 111 360 84T315 36Q292 17 264 4L247 -7Q233 -16 216 -28T182 -57T156 -93T145 -133Q145 -151 156 -159T188 -168Q212 -168 232 -160T277 -137L287 -169Q254 -190 226 -202T162 -214Q130 -214 109 -198T88 -150Q88 -125 97 -104T120 -66T153 -35Q170 -22 188 -10Q130 -9 102 23Q74 56 74 127Q74 180 91 260Q121 401 173 465T308 530Q370 530 398 492T426 386Q426 339 414 282L406 248H160ZM347 308Q358 363 358 396Q358 434 344 452T295 470Q275 470 258 462T225 436T197 386T173 308H347Z"  />
<glyph unicode="&#x11A;" horiz-adv-x="444" d="M552 722L537 656H285L232 410H418L404 344H218L158 66H422L408 0H143H66L222 722H299H552ZM282 898H346L395 796L488 898H552L422 760H354L282 898Z"  />
<glyph unicode="&#x11B;" horiz-adv-x="389" d="M347 308Q358 363 358 396Q358 434 344 452T295 470Q275 470 258 462T225 436T197 386T173 308H347ZM160 248L154 219Q142 163 142 129Q142 86 160 68T214 50Q235 50 251 58T281 81T305 112T323 148L389 140Q378 111 360 84T316 36T259 3T191 -10Q131 -10 103 23T74 127Q74 180 91 260Q121 401 173 465T308 530Q370 530 398 492T426 386Q426 339 414 282L406 248H160ZM207 716H271L320 614L413 716H477L347 578H279L207 716Z"  />
<glyph unicode="&#x11C;" horiz-adv-x="500" d="M474 500Q476 516 477 531T479 560Q479 608 461 637T397 666Q364 666 337 651T285 599T241 505T202 361Q177 248 177 178Q177 112 199 84T265 56Q320 56 355 85T402 170L424 272H326L341 338H439H517L444 0H394L395 54Q366 24 331 7T250 -10Q180 -10 141 33T101 178Q101 215 106 260T124 361Q146 463 176 534T242 649T320 712T411 732Q452 732 480 718T525 681T549 626T556 559Q556 545 555 530T552 500H474ZM404 898H472L544 760H480L431 862L338 760H274L404 898Z"  />
<glyph unicode="&#x11D;" horiz-adv-x="444" d="M326 -42Q327 -39 327 -34Q327 -19 314 -9T280 7T235 18T190 28Q155 14 132 -3T104 -43Q103 -47 103 -50T102 -57Q102 -83 126 -99T202 -116Q262 -116 290 -95T326 -42ZM214 345Q207 311 207 285Q207 245 222 230T262 214Q278 214 293 220T321 242T346 283T366 345Q374 383 374 406Q374 444 359 460T319 476Q287 476 259 448T214 345ZM508 464Q502 466 497 466Q492 466 487 466Q473 466 462 461T438 446Q439 437 439 429T440 412Q440 398 439 382T432 346Q421 297 403 262T362 205T310 171T252 160Q240 160 229 162T205 164Q195 162 180 154T162 130Q162 128 162 127T161 123Q161 111 170 105T196 94T232 86T276 77Q300 72 321 65T358 47T384 20T394 -19Q394 -32 391 -48Q385 -74 369 -96T326 -134T265 -160T189 -170Q110 -170 71 -146T32 -80Q32 -70 35 -58Q43 -23 69 4T133 46Q115 52 103 66T91 101Q91 106 93 116Q99 145 124 162T176 185Q157 200 149 227T141 284Q141 297 142 309T146 334Q166 428 218 479T339 530Q365 530 390 519T424 482Q441 503 465 516T522 530L508 464ZM334 716H402L474 578H410L361 680L268 578H204L334 716Z"  />
<glyph unicode="&#x11E;" horiz-adv-x="500" d="M474 500Q476 516 477 531T479 560Q479 608 461 637T397 666Q364 666 337 651T285 599T241 505T202 361Q177 248 177 178Q177 112 199 84T265 56Q320 56 355 85T402 170L424 272H326L341 338H439H517L444 0H394L395 54Q366 24 331 7T250 -10Q180 -10 141 33T101 178Q101 215 106 260T124 361Q146 463 176 534T242 649T320 712T411 732Q452 732 480 718T525 681T549 626T556 559Q556 545 555 530T552 500H474ZM345 892Q344 887 344 877Q344 843 365 828T423 812Q465 812 488 833T527 892H565Q547 831 505 798T402 764Q353 764 329 792T305 865Q305 872 305 878T307 892H345Z"  />
<glyph unicode="&#x11F;" horiz-adv-x="444" d="M326 -42Q327 -39 327 -34Q327 -19 314 -9T280 7T235 18T190 28Q155 14 132 -3T104 -43Q103 -47 103 -50T102 -57Q102 -83 126 -99T202 -116Q262 -116 290 -95T326 -42ZM214 345Q207 311 207 285Q207 245 222 230T262 214Q278 214 293 220T321 242T346 283T366 345Q374 383 374 406Q374 444 359 460T319 476Q287 476 259 448T214 345ZM508 464Q502 466 497 466Q492 466 487 466Q473 466 462 461T438 446Q439 437 439 429T440 412Q440 398 439 382T432 346Q421 297 403 262T362 205T310 171T252 160Q240 160 229 162T205 164Q195 162 180 154T162 130Q162 128 162 127T161 123Q161 111 170 105T196 94T232 86T276 77Q300 72 321 65T358 47T384 20T394 -19Q394 -32 391 -48Q385 -74 369 -96T326 -134T265 -160T189 -170Q110 -170 71 -146T32 -80Q32 -70 35 -58Q43 -23 69 4T133 46Q115 52 103 66T91 101Q91 106 93 116Q99 145 124 162T176 185Q157 200 149 227T141 284Q141 297 142 309T146 334Q166 428 218 479T339 530Q365 530 390 519T424 482Q441 503 465 516T522 530L508 464ZM277 710Q276 705 276 695Q276 661 297 646T355 630Q397 630 420 651T459 710H497Q479 649 437 616T334 582Q285 582 261 610T237 683Q237 690 237 696T239 710H277Z"  />
<glyph unicode="&#x120;" horiz-adv-x="500" d="M474 500Q476 516 477 531T479 560Q479 608 461 637T397 666Q364 666 337 651T285 599T241 505T202 361Q177 248 177 178Q177 112 199 84T265 56Q320 56 355 85T402 170L424 272H326L341 338H439H517L444 0H394L395 54Q366 24 331 7T250 -10Q180 -10 141 33T101 178Q101 215 106 260T124 361Q146 463 176 534T242 649T320 712T411 732Q452 732 480 718T525 681T549 626T556 559Q556 545 555 530T552 500H474ZM401 872H467L445 770H379L401 872Z"  />
<glyph unicode="&#x121;" horiz-adv-x="444" d="M326 -42Q327 -39 327 -34Q327 -19 314 -9T280 7T235 18T190 28Q155 14 132 -3T104 -43Q103 -47 103 -50T102 -57Q102 -83 126 -99T202 -116Q262 -116 290 -95T326 -42ZM214 345Q207 311 207 285Q207 245 222 230T262 214Q278 214 293 220T321 242T346 283T366 345Q374 383 374 406Q374 444 359 460T319 476Q287 476 259 448T214 345ZM508 464Q502 466 497 466Q492 466 487 466Q473 466 462 461T438 446Q439 437 439 429T440 412Q440 398 439 382T432 346Q421 297 403 262T362 205T310 171T252 160Q240 160 229 162T205 164Q195 162 180 154T162 130Q162 128 162 127T161 123Q161 111 170 105T196 94T232 86T276 77Q300 72 321 65T358 47T384 20T394 -19Q394 -32 391 -48Q385 -74 369 -96T326 -134T265 -160T189 -170Q110 -170 71 -146T32 -80Q32 -70 35 -58Q43 -23 69 4T133 46Q115 52 103 66T91 101Q91 106 93 116Q99 145 124 162T176 185Q157 200 149 227T141 284Q141 297 142 309T146 334Q166 428 218 479T339 530Q365 530 390 519T424 482Q441 503 465 516T522 530L508 464ZM333 690H399L377 588H311L333 690Z"  />
<glyph unicode="&#x122;" horiz-adv-x="500" d="M474 500Q476 516 477 531T479 560Q479 608 461 637T397 666Q364 666 337 651T285 599T241 505T202 361Q177 248 177 178Q177 112 199 84T265 56Q320 56 355 85T402 170L424 272H326L341 338H439H517L444 0H394L395 54Q366 24 331 7T250 -10Q180 -10 141 33T101 178Q101 215 106 260T124 361Q146 463 176 534T242 649T320 712T411 732Q452 732 480 718T525 681T549 626T556 559Q556 545 555 530T552 500H474ZM289 -46L272 -123L209 -216H181L236 -123H199L216 -46H289Z"  />
<glyph unicode="&#x123;" horiz-adv-x="444" d="M326 -42Q327 -39 327 -34Q327 -19 314 -9T280 7T235 18T190 28Q155 14 132 -3T104 -43Q103 -47 103 -50T102 -57Q102 -83 126 -99T202 -116Q262 -116 290 -95T326 -42ZM214 345Q207 311 207 285Q207 245 222 230T262 214Q278 214 293 220T321 242T346 283T366 345Q374 383 374 406Q374 444 359 460T319 476Q287 476 259 448T214 345ZM508 464Q502 466 497 466Q492 466 487 466Q473 466 462 461T438 446Q439 437 439 429T440 412Q440 398 439 382T432 346Q421 297 403 262T362 205T310 171T252 160Q240 160 229 162T205 164Q195 162 180 154T162 130Q162 128 162 127T161 123Q161 111 170 105T196 94T232 86T276 77Q300 72 321 65T358 47T384 20T394 -19Q394 -32 391 -48Q385 -74 369 -96T326 -134T265 -160T189 -170Q110 -170 71 -146T32 -80Q32 -70 35 -58Q43 -23 69 4T133 46Q115 52 103 66T91 101Q91 106 93 116Q99 145 124 162T176 185Q157 200 149 227T141 284Q141 297 142 309T146 334Q166 428 218 479T339 530Q365 530 390 519T424 482Q441 503 465 516T522 530L508 464ZM306 578L319 642L373 716H397L351 642H383L370 578H306Z"  />
<glyph unicode="&#x124;" horiz-adv-x="500" d="M300 722L232 410H444L512 722H590L434 0H356L430 344H218L144 0H66L222 722H300ZM404 898H472L544 760H480L431 862L338 760H274L404 898Z"  />
<glyph unicode="&#x125;" horiz-adv-x="444" d="M228 722H300L244 463Q258 476 275 488T309 509T342 524T372 530Q416 530 439 510T463 444Q463 422 457 394L372 0H300L383 384Q388 409 388 423Q388 470 344 470Q318 470 290 453T231 406L144 0H72L228 722ZM371 898H439L511 760H447L398 862L305 760H241L371 898Z"  />
<glyph unicode="&#x126;" horiz-adv-x="500" d="M300 722L264 559H476L512 722H590L434 0H356L420 304H208L144 0H66L222 722H300ZM222 367H434L465 503H253L222 367Z"  />
<glyph unicode="&#x127;" horiz-adv-x="444" d="M228 722H300L283 646H409L397 590H271L244 463Q258 476 275 488T309 509T342 524T372 530Q416 530 439 510T463 444Q463 422 457 394L372 0H300L383 384Q388 409 388 423Q388 470 344 470Q318 470 290 453T231 406L144 0H72L199 590H148L160 646H211L228 722Z"  />
<glyph unicode="&#x128;" horiz-adv-x="222" d="M306 722L150 0H72L228 722H306ZM137 770Q141 786 150 803T172 835T201 858T235 868Q254 868 270 861T301 846Q316 838 329 831T356 824Q378 824 388 839T405 874H441Q436 856 428 838T408 807T380 785T342 776Q326 776 311 783T281 798Q266 806 252 813T224 820Q203 820 191 805T173 770H137Z"  />
<glyph unicode="&#x129;" horiz-adv-x="222" d="M187 520H259L147 0H75L187 520ZM94 588Q98 604 107 621T129 653T158 676T192 686Q211 686 227 679T258 664Q273 656 286 649T313 642Q335 642 345 657T362 692H398Q393 674 385 656T365 625T337 603T299 594Q283 594 268 601T238 616Q223 624 209 631T181 638Q160 638 148 623T130 588H94Z"  />
<glyph unicode="&#x12A;" horiz-adv-x="222" d="M306 722L150 0H72L228 722H306ZM143 796L154 844H420L409 796H143Z"  />
<glyph unicode="&#x12B;" horiz-adv-x="222" d="M187 520H259L147 0H75L187 520ZM109 614L120 662H386L375 614H109Z"  />
<glyph unicode="&#x12E;" horiz-adv-x="222" d="M306 722L150 0H137Q129 -4 124 -7T113 -14Q102 -20 87 -31T58 -57T33 -92T23 -133Q23 -168 66 -168Q91 -168 110 -160T157 -136L166 -168Q131 -190 104 -202T40 -214Q8 -214 -12 -199T-33 -151Q-33 -121 -21 -97T10 -55T50 -23T92 0H72L228 722H306Z"  />
<glyph unicode="&#x12F;" horiz-adv-x="222" d="M187 520H259L147 0H137Q129 -4 124 -7T113 -14Q102 -20 87 -31T58 -57T33 -92T23 -133Q23 -168 66 -168Q91 -168 110 -160T157 -136L166 -168Q131 -190 104 -202T40 -214Q8 -214 -12 -199T-33 -151Q-33 -121 -21 -97T10 -55T50 -23T92 0H75L187 520ZM231 722H303L285 638H213L231 722Z"  />
<glyph unicode="&#x130;" horiz-adv-x="222" d="M306 722L150 0H72L228 722H306ZM266 872H332L310 770H244L266 872Z"  />
<glyph unicode="&#x131;" horiz-adv-x="222" d="M187 520H259L147 0H75L187 520Z"  />
<glyph unicode="&#x132;" horiz-adv-x="490" d="M306 722L150 0H72L228 722H306ZM580 722L462 180Q450 124 433 88T389 30T327 -1T243 -10Q235 -10 226 -8T206 -4L225 64Q246 56 269 56Q316 56 341 79T381 162L502 722H580Z"  />
<glyph unicode="&#x133;" horiz-adv-x="430" d="M231 722H303L285 638H213L231 722ZM187 520H259L147 0H75L187 520ZM442 722H514L496 638H424L442 722ZM190 -106Q196 -108 201 -109T212 -110Q236 -110 252 -96T276 -46L398 520H470L346 -52Q332 -117 301 -143T215 -170Q206 -170 197 -169T177 -166L190 -106Z"  />
<glyph unicode="&#x134;" horiz-adv-x="278" d="M368 722L250 180Q238 124 221 88T177 30T115 -1T31 -10Q23 -10 14 -8T-6 -4L13 64Q34 56 57 56Q104 56 129 79T169 162L290 722H368ZM323 898H391L463 760H399L350 862L257 760H193L323 898Z"  />
<glyph unicode="&#x135;" horiz-adv-x="222" d="M-18 -106Q-12 -108 -7 -109T4 -110Q28 -110 44 -96T68 -46L190 520H262L138 -52Q124 -117 93 -143T7 -170Q-2 -170 -11 -169T-31 -166L-18 -106ZM227 716H295L367 578H303L254 680L161 578H97L227 716Z"  />
<glyph unicode="&#x136;" horiz-adv-x="444" d="M290 722L210 354H212L494 722H578L383 470L448 0H364L314 390H312L182 222L134 0H56L212 722H290ZM276 -46L259 -123L196 -216H168L223 -123H186L203 -46H276Z"  />
<glyph unicode="&#x137;" horiz-adv-x="389" d="M222 722H294L195 266H197L390 520H464L332 354L376 0H302L269 282H267L171 154L138 0H66L222 722ZM245 -46L228 -123L165 -216H137L192 -123H155L172 -46H245Z"  />
<glyph unicode="&#x139;" horiz-adv-x="389" d="M300 722L158 66H392L378 0H143H66L222 722H300ZM289 760H239L366 898H444L289 760Z"  />
<glyph unicode="&#x13A;" horiz-adv-x="222" d="M231 722H303L147 0H75L231 722ZM266 760H216L343 898H421L266 760Z"  />
<glyph unicode="&#x13B;" horiz-adv-x="389" d="M300 722L158 66H392L378 0H143H66L222 722H300ZM249 -46L232 -123L169 -216H141L196 -123H159L176 -46H249Z"  />
<glyph unicode="&#x13C;" horiz-adv-x="222" d="M231 722H303L147 0H75L231 722ZM139 -46L122 -123L59 -216H31L86 -123H49L66 -46H139Z"  />
<glyph unicode="&#x13D;" horiz-adv-x="389" d="M300 722L158 66H392L378 0H143H66L222 722H300ZM427 722L411 649L351 560H324L376 649H340L356 722H427Z"  />
<glyph unicode="&#x13E;" horiz-adv-x="222" d="M231 722H303L147 0H75L231 722ZM414 722L398 649L338 560H311L363 649H327L343 722H414Z"  />
<glyph unicode="&#x13F;" horiz-adv-x="389" d="M300 722L158 66H392L378 0H143H66L222 722H300ZM319 413H385L363 311H297L319 413Z"  />
<glyph unicode="&#x140;" horiz-adv-x="323" d="M231 722H303L147 0H75L231 722ZM312 413H378L356 311H290L312 413Z"  />
<glyph unicode="&#x141;" horiz-adv-x="389" d="M158 66H392L378 0H144H66L130 299L43 267L57 329L144 361L222 722H300L229 393L396 455L383 393L215 331L158 66Z"  />
<glyph unicode="&#x142;" horiz-adv-x="222" d="M147 0H75L154 369L66 328L79 388L167 429L231 722H303L247 466L335 506L322 446L234 406L147 0Z"  />
<glyph unicode="&#x143;" horiz-adv-x="500" d="M290 722H334L405 190H407L522 722H600L444 0H360L271 628H269L134 0H56L212 722H290ZM411 760H361L488 898H566L411 760Z"  />
<glyph unicode="&#x144;" horiz-adv-x="444" d="M184 520H252L240 463Q255 476 273 488T308 509T342 524T372 530Q416 530 439 510T463 444Q463 422 457 394L372 0H300L383 384Q388 409 388 423Q388 470 344 470Q318 470 290 453T231 406L144 0H72L184 520ZM348 578H298L425 716H503L348 578Z"  />
<glyph unicode="&#x145;" horiz-adv-x="500" d="M290 722H334L405 190H407L522 722H600L444 0H360L271 628H269L134 0H56L212 722H290ZM286 -46L269 -123L206 -216H178L233 -123H196L213 -46H286Z"  />
<glyph unicode="&#x146;" horiz-adv-x="444" d="M184 520H252L240 463Q255 476 273 488T308 509T342 524T372 530Q416 530 439 510T463 444Q463 422 457 394L372 0H300L383 384Q388 409 388 423Q388 470 344 470Q318 470 290 453T231 406L144 0H72L184 520ZM251 -46L234 -123L171 -216H143L198 -123H161L178 -46H251Z"  />
<glyph unicode="&#x147;" horiz-adv-x="500" d="M290 722H334L405 190H407L522 722H600L444 0H360L271 628H269L134 0H56L212 722H290ZM308 898H372L421 796L514 898H578L448 760H380L308 898Z"  />
<glyph unicode="&#x148;" horiz-adv-x="444" d="M184 520H252L240 463Q255 476 273 488T308 509T342 524T372 530Q416 530 439 510T463 444Q463 422 457 394L372 0H300L383 384Q388 409 388 423Q388 470 344 470Q318 470 290 453T231 406L144 0H72L184 520ZM238 716H302L351 614L444 716H508L378 578H310L238 716Z"  />
<glyph unicode="&#x149;" horiz-adv-x="494" d="M234 520H302L290 463Q305 476 323 488T358 509T392 524T422 530Q466 530 489 510T513 444Q513 422 507 394L422 0H350L433 384Q438 409 438 423Q438 470 394 470Q368 470 340 453T281 406L194 0H122L234 520ZM233 722L211 622L120 478H90L168 628H128L149 722H233Z"  />
<glyph unicode="&#x14C;" horiz-adv-x="500" d="M454 361Q478 475 478 540Q478 577 472 601T454 639T428 660T394 666Q368 666 342 653T292 606T245 512T202 361Q178 247 178 182Q178 145 184 121T202 83T228 62T262 56Q288 56 314 69T364 116T411 210T454 361ZM532 361Q510 260 480 190T414 75T335 10T247 -10Q179 -10 140 34T101 181Q101 218 106 262T124 361Q146 462 176 532T242 647T320 712T408 732Q476 732 515 687T554 539Q554 464 532 361ZM283 796L294 844H560L549 796H283Z"  />
<glyph unicode="&#x14D;" horiz-adv-x="389" d="M163 260Q144 171 144 123Q144 79 159 65T204 50Q227 50 245 58T279 90T309 154T337 260Q356 348 356 395Q356 440 341 455T295 470Q272 470 254 462T220 430T191 365T163 260ZM91 260Q121 401 173 465T308 530Q368 530 397 497T426 392Q426 340 409 260Q378 119 326 55T191 -10Q131 -10 103 23T74 127Q74 180 91 260ZM185 614L196 662H462L451 614H185Z"  />
<glyph unicode="&#x14E;" horiz-adv-x="500" d="M454 361Q478 475 478 540Q478 577 472 601T454 639T428 660T394 666Q368 666 342 653T292 606T245 512T202 361Q178 247 178 182Q178 145 184 121T202 83T228 62T262 56Q288 56 314 69T364 116T411 210T454 361ZM532 361Q510 260 480 190T414 75T335 10T247 -10Q179 -10 140 34T101 181Q101 218 106 262T124 361Q146 462 176 532T242 647T320 712T408 732Q476 732 515 687T554 539Q554 464 532 361ZM344 892Q343 887 343 877Q343 843 364 828T422 812Q464 812 487 833T526 892H564Q546 831 504 798T401 764Q352 764 328 792T304 865Q304 872 304 878T306 892H344Z"  />
<glyph unicode="&#x14F;" horiz-adv-x="389" d="M163 260Q144 171 144 123Q144 79 159 65T204 50Q227 50 245 58T279 90T309 154T337 260Q356 348 356 395Q356 440 341 455T295 470Q272 470 254 462T220 430T191 365T163 260ZM91 260Q121 401 173 465T308 530Q368 530 397 497T426 392Q426 340 409 260Q378 119 326 55T191 -10Q131 -10 103 23T74 127Q74 180 91 260ZM251 710Q250 705 250 695Q250 661 271 646T329 630Q371 630 394 651T433 710H471Q453 649 411 616T308 582Q259 582 235 610T211 683Q211 690 211 696T213 710H251Z"  />
<glyph unicode="&#x150;" horiz-adv-x="500" d="M454 361Q478 475 478 540Q478 577 472 601T454 639T428 660T394 666Q368 666 342 653T292 606T245 512T202 361Q178 247 178 182Q178 145 184 121T202 83T228 62T262 56Q288 56 314 69T364 116T411 210T454 361ZM532 361Q510 260 480 190T414 75T335 10T247 -10Q179 -10 140 34T101 181Q101 218 106 262T124 361Q146 462 176 532T242 647T320 712T408 732Q476 732 515 687T554 539Q554 464 532 361ZM473 760H423L550 898H628L473 760ZM357 760H309L428 898H508L357 760Z"  />
<glyph unicode="&#x151;" horiz-adv-x="389" d="M163 260Q144 171 144 123Q144 79 159 65T204 50Q227 50 245 58T279 90T309 154T337 260Q356 348 356 395Q356 440 341 455T295 470Q272 470 254 462T220 430T191 365T163 260ZM91 260Q121 401 173 465T308 530Q368 530 397 497T426 392Q426 340 409 260Q378 119 326 55T191 -10Q131 -10 103 23T74 127Q74 180 91 260ZM375 578H325L452 716H530L375 578ZM259 578H211L330 716H410L259 578Z"  />
<glyph unicode="&#x152;" horiz-adv-x="722" d="M481 554Q487 581 487 599Q487 631 468 642T411 654Q375 654 344 641T285 595T234 505T192 361Q171 263 171 204Q171 126 201 97T284 68Q309 68 327 72T359 88T382 118T398 168L481 554ZM454 66H700L686 0H438H365H300Q248 0 209 9T144 39T104 96T91 186Q91 221 97 264T114 361Q137 468 167 537T239 648T333 705T456 722H518H595H830L815 656H581L528 410H706L692 344H514L454 66Z"  />
<glyph unicode="&#x153;" horiz-adv-x="611" d="M571 308Q582 363 582 396Q582 434 568 452T519 470Q488 470 460 434T409 308H571ZM151 260Q132 171 132 123Q132 79 147 65T192 50Q215 50 233 58T268 90T299 154T327 260Q346 346 346 393Q346 439 330 454T283 470Q260 470 242 462T208 430T179 365T151 260ZM396 248L390 219Q379 166 379 135Q379 87 396 69T438 50Q459 50 475 58T505 81T528 112T545 148L611 140Q601 111 583 84T540 36T486 3T424 -10Q407 -10 391 -6T361 7T337 32T320 71Q270 -10 179 -10Q119 -10 91 23T62 127Q62 180 79 260Q109 401 161 465T296 530Q344 530 370 509T403 442Q432 487 465 508T532 530Q594 530 622 492T650 386Q650 339 638 282L630 248H396Z"  />
<glyph unicode="&#x154;" horiz-adv-x="500" d="M231 406H299Q383 406 422 438T474 531Q479 556 479 572Q479 614 451 635T353 656H285L231 406ZM222 722H299H396Q471 722 515 686T559 583Q559 560 553 535Q540 474 502 427T399 358L444 0H362L320 342L217 338L144 0H66L222 722ZM381 760H331L458 898H536L381 760Z"  />
<glyph unicode="&#x155;" horiz-adv-x="278" d="M178 520H250L236 457H238Q259 481 277 495T312 517T347 527T386 530L371 462Q351 462 332 458T295 444T258 416T218 370L138 0H66L178 520ZM294 578H244L371 716H449L294 578Z"  />
<glyph unicode="&#x156;" horiz-adv-x="500" d="M231 406H299Q383 406 422 438T474 531Q479 556 479 572Q479 614 451 635T353 656H285L231 406ZM222 722H299H396Q471 722 515 686T559 583Q559 560 553 535Q540 474 502 427T399 358L444 0H362L320 342L217 338L144 0H66L222 722ZM278 -46L261 -123L198 -216H170L225 -123H188L205 -46H278Z"  />
<glyph unicode="&#x157;" horiz-adv-x="278" d="M178 520H250L236 457H238Q259 481 277 495T312 517T347 527T386 530L371 462Q351 462 332 458T295 444T258 416T218 370L138 0H66L178 520ZM132 -46L115 -123L52 -216H24L79 -123H42L59 -46H132Z"  />
<glyph unicode="&#x158;" horiz-adv-x="500" d="M231 406H299Q383 406 422 438T474 531Q479 556 479 572Q479 614 451 635T353 656H285L231 406ZM222 722H299H396Q471 722 515 686T559 583Q559 560 553 535Q540 474 502 427T399 358L444 0H362L320 342L217 338L144 0H66L222 722ZM279 898H343L392 796L485 898H549L419 760H351L279 898Z"  />
<glyph unicode="&#x159;" horiz-adv-x="278" d="M178 520H250L236 457H238Q259 481 277 495T312 517T347 527T386 530L371 462Q351 462 332 458T295 444T258 416T218 370L138 0H66L178 520ZM181 716H245L294 614L387 716H451L321 578H253L181 716Z"  />
<glyph unicode="&#x15A;" horiz-adv-x="444" d="M440 536Q443 554 443 571Q443 613 424 639T357 666Q312 666 279 640T237 571Q234 557 234 544Q234 513 250 489T289 443T340 402T391 356T431 300T447 225Q447 202 441 174Q422 87 364 39T216 -10Q145 -10 108 30T71 138Q71 164 77 194H149Q145 174 145 152Q145 107 168 82T239 56Q288 56 323 86T371 175Q374 190 374 203Q374 235 358 260T319 307T268 352T217 398T177 453T161 522Q161 539 166 564Q174 602 193 633T240 686T302 720T376 732Q443 732 480 695T517 587Q517 575 516 563T512 536H440ZM372 760H322L449 898H527L372 760Z"  />
<glyph unicode="&#x15B;" horiz-adv-x="389" d="M357 388Q355 422 342 446T285 470Q259 470 239 452T214 408Q212 398 212 393Q212 372 224 356T255 324T295 295T335 262T366 222T379 168Q379 160 378 152T375 134Q368 103 352 77T312 32T261 1T201 -10Q130 -10 100 26T65 128L134 142Q136 125 140 109T153 79T175 58T209 50Q224 50 238 56T266 73T288 98T301 129Q302 134 302 138T303 148Q303 171 291 189T261 222T221 252T181 284T150 323T138 374Q138 387 141 404Q147 429 161 452T198 492T246 520T303 530Q363 530 392 498T421 406L357 388ZM316 578H266L393 716H471L316 578Z"  />
<glyph unicode="&#x15C;" horiz-adv-x="444" d="M440 536Q443 554 443 571Q443 613 424 639T357 666Q312 666 279 640T237 571Q234 557 234 544Q234 513 250 489T289 443T340 402T391 356T431 300T447 225Q447 202 441 174Q422 87 364 39T216 -10Q145 -10 108 30T71 138Q71 164 77 194H149Q145 174 145 152Q145 107 168 82T239 56Q288 56 323 86T371 175Q374 190 374 203Q374 235 358 260T319 307T268 352T217 398T177 453T161 522Q161 539 166 564Q174 602 193 633T240 686T302 720T376 732Q443 732 480 695T517 587Q517 575 516 563T512 536H440ZM373 898H441L513 760H449L400 862L307 760H243L373 898Z"  />
<glyph unicode="&#x15D;" horiz-adv-x="389" d="M357 388Q355 422 342 446T285 470Q259 470 239 452T214 408Q212 398 212 393Q212 372 224 356T255 324T295 295T335 262T366 222T379 168Q379 160 378 152T375 134Q368 103 352 77T312 32T261 1T201 -10Q130 -10 100 26T65 128L134 142Q136 125 140 109T153 79T175 58T209 50Q224 50 238 56T266 73T288 98T301 129Q302 134 302 138T303 148Q303 171 291 189T261 222T221 252T181 284T150 323T138 374Q138 387 141 404Q147 429 161 452T198 492T246 520T303 530Q363 530 392 498T421 406L357 388ZM312 716H380L452 578H388L339 680L246 578H182L312 716Z"  />
<glyph unicode="&#x15E;" horiz-adv-x="444" d="M99 -156Q109 -161 124 -165T160 -170Q190 -170 210 -159T236 -129Q237 -126 237 -121Q237 -107 226 -97T191 -86Q179 -86 169 -89T147 -96L136 -82L204 -10Q142 -6 108 30Q71 70 71 138Q71 164 77 194H149Q145 174 145 152Q145 107 168 82T239 56Q288 56 323 86T371 175Q374 190 374 203Q374 235 358 260T319 307T268 352T217 398T177 453T161 522Q161 539 166 564Q174 602 193 633T240 686T302 720T376 732Q443 732 480 695T517 587Q517 575 516 563T512 536H440Q443 554 443 571Q443 613 424 639T357 666Q312 666 279 640T237 571Q234 557 234 544Q234 513 250 489T289 443T340 402T391 356T431 300T447 225Q447 202 441 174Q422 87 364 38Q315 -2 243 -9L193 -58L195 -60Q205 -54 227 -54Q254 -54 273 -67T292 -108Q292 -113 292 -117T290 -126Q285 -147 273 -163T244 -191T206 -209T163 -216Q134 -216 114 -213T75 -200L99 -156Z"  />
<glyph unicode="&#x15F;" horiz-adv-x="389" d="M76 -156Q86 -161 101 -165T137 -170Q167 -170 187 -159T213 -129Q214 -126 214 -121Q214 -107 203 -97T168 -86Q156 -86 146 -89T124 -96L113 -82L182 -9Q126 -5 100 26Q70 62 65 128L134 142Q136 125 140 109T153 79T175 58T209 50Q224 50 238 56T266 73T288 98T301 129Q302 134 302 138T303 148Q303 171 291 189T261 222T221 252T181 284T150 323T138 374Q138 387 141 404Q147 429 161 452T198 492T246 520T303 530Q363 530 392 498T421 406L357 388Q355 422 342 446T285 470Q259 470 239 452T214 408Q212 398 212 393Q212 372 224 356T255 324T295 295T335 262T366 222T379 168Q379 160 378 152T375 134Q368 103 352 77T312 32T260 1Q240 -6 219 -9L170 -58L172 -60Q182 -54 204 -54Q231 -54 250 -67T269 -108Q269 -113 269 -117T267 -126Q262 -147 250 -163T221 -191T183 -209T140 -216Q111 -216 91 -213T52 -200L76 -156Z"  />
<glyph unicode="&#x160;" horiz-adv-x="444" d="M440 536Q443 554 443 571Q443 613 424 639T357 666Q312 666 279 640T237 571Q234 557 234 544Q234 513 250 489T289 443T340 402T391 356T431 300T447 225Q447 202 441 174Q422 87 364 39T216 -10Q145 -10 108 30T71 138Q71 164 77 194H149Q145 174 145 152Q145 107 168 82T239 56Q288 56 323 86T371 175Q374 190 374 203Q374 235 358 260T319 307T268 352T217 398T177 453T161 522Q161 539 166 564Q174 602 193 633T240 686T302 720T376 732Q443 732 480 695T517 587Q517 575 516 563T512 536H440ZM280 898H344L393 796L486 898H550L420 760H352L280 898Z"  />
<glyph unicode="&#x161;" horiz-adv-x="389" d="M357 388Q355 422 342 446T285 470Q259 470 239 452T214 408Q212 398 212 393Q212 372 224 356T255 324T295 295T335 262T366 222T379 168Q379 160 378 152T375 134Q368 103 352 77T312 32T261 1T201 -10Q130 -10 100 26T65 128L134 142Q136 125 140 109T153 79T175 58T209 50Q224 50 238 56T266 73T288 98T301 129Q302 134 302 138T303 148Q303 171 291 189T261 222T221 252T181 284T150 323T138 374Q138 387 141 404Q147 429 161 452T198 492T246 520T303 530Q363 530 392 498T421 406L357 388ZM214 716H278L327 614L420 716H484L354 578H286L214 716Z"  />
<glyph unicode="&#x162;" horiz-adv-x="389" d="M537 722L522 656H374L233 0H155L296 656H148L163 722H309H388H537ZM221 -46L204 -123L141 -216H113L168 -123H131L148 -46H221Z"  />
<glyph unicode="&#x163;" horiz-adv-x="278" d="M120 520H190L228 694H300L262 520H358L345 460H249L170 96Q168 86 168 81Q168 64 178 54T211 44Q222 44 234 47T257 54L246 0Q229 -5 214 -7T175 -10Q134 -10 114 6T94 58Q94 76 100 102L177 460H107L120 520ZM182 -46L165 -123L102 -216H74L129 -123H92L109 -46H182Z"  />
<glyph unicode="&#x164;" horiz-adv-x="389" d="M537 722L522 656H374L233 0H155L296 656H148L163 722H309H388H537ZM246 898H310L359 796L452 898H516L386 760H318L246 898Z"  />
<glyph unicode="&#x165;" horiz-adv-x="278" d="M120 520H190L228 694H300L262 520H358L345 460H249L170 96Q168 86 168 81Q168 64 178 54T211 44Q222 44 234 47T257 54L246 0Q229 -5 214 -7T175 -10Q134 -10 114 6T94 58Q94 76 100 102L177 460H107L120 520ZM425 722L409 649L349 560H322L374 649H338L354 722H425Z"  />
<glyph unicode="&#x166;" horiz-adv-x="389" d="M147 509H265L296 656H148L163 722H537L522 656H374L343 509H460L447 449H330L233 0H155L252 449H134L147 509Z"  />
<glyph unicode="&#x167;" horiz-adv-x="278" d="M120 520H190L228 694H300L262 520H358L345 460H249L225 352H308L296 293H213L170 96Q168 86 168 81Q168 64 178 54T211 44Q222 44 234 47T257 54L246 0Q229 -5 214 -7T175 -10Q134 -10 114 6T94 58Q94 76 100 102L141 293H78L90 352H153L177 460H107L120 520Z"  />
<glyph unicode="&#x168;" horiz-adv-x="500" d="M300 722L185 192Q182 178 180 165T178 138Q178 102 196 79T262 56Q294 56 317 67T355 96T381 140T397 192L512 722H590L475 190Q466 146 448 110T401 47T334 5T247 -10Q169 -10 134 27T99 126Q99 141 101 157T107 190L222 722H300ZM270 770Q274 786 283 803T305 835T334 858T368 868Q387 868 403 861T434 846Q449 838 462 831T489 824Q511 824 521 839T538 874H574Q569 856 561 838T541 807T513 785T475 776Q459 776 444 783T414 798Q399 806 385 813T357 820Q336 820 324 805T306 770H270Z"  />
<glyph unicode="&#x169;" horiz-adv-x="444" d="M372 0H304L316 57Q300 44 282 32T247 11T213 -4T183 -10Q139 -10 116 10T93 75Q93 97 99 126L184 520H256L173 136Q168 111 168 96Q168 50 211 50Q237 50 265 67T324 114L412 520H484L372 0ZM206 588Q210 604 219 621T241 653T270 676T304 686Q323 686 339 679T370 664Q385 656 398 649T425 642Q447 642 457 657T474 692H510Q505 674 497 656T477 625T449 603T411 594Q395 594 380 601T350 616Q335 624 321 631T293 638Q272 638 260 623T242 588H206Z"  />
<glyph unicode="&#x16A;" horiz-adv-x="500" d="M300 722L185 192Q182 178 180 165T178 138Q178 102 196 79T262 56Q294 56 317 67T355 96T381 140T397 192L512 722H590L475 190Q466 146 448 110T401 47T334 5T247 -10Q169 -10 134 27T99 126Q99 141 101 157T107 190L222 722H300ZM282 796L293 844H559L548 796H282Z"  />
<glyph unicode="&#x16B;" horiz-adv-x="444" d="M372 0H304L316 57Q300 44 282 32T247 11T213 -4T183 -10Q139 -10 116 10T93 75Q93 97 99 126L184 520H256L173 136Q168 111 168 96Q168 50 211 50Q237 50 265 67T324 114L412 520H484L372 0ZM218 614L229 662H495L484 614H218Z"  />
<glyph unicode="&#x16C;" horiz-adv-x="500" d="M300 722L185 192Q182 178 180 165T178 138Q178 102 196 79T262 56Q294 56 317 67T355 96T381 140T397 192L512 722H590L475 190Q466 146 448 110T401 47T334 5T247 -10Q169 -10 134 27T99 126Q99 141 101 157T107 190L222 722H300ZM346 892Q345 887 345 877Q345 843 366 828T424 812Q466 812 489 833T528 892H566Q548 831 506 798T403 764Q354 764 330 792T306 865Q306 872 306 878T308 892H346Z"  />
<glyph unicode="&#x16D;" horiz-adv-x="444" d="M372 0H304L316 57Q300 44 282 32T247 11T213 -4T183 -10Q139 -10 116 10T93 75Q93 97 99 126L184 520H256L173 136Q168 111 168 96Q168 50 211 50Q237 50 265 67T324 114L412 520H484L372 0ZM280 710Q279 705 279 695Q279 661 300 646T358 630Q400 630 423 651T462 710H500Q482 649 440 616T337 582Q288 582 264 610T240 683Q240 690 240 696T242 710H280Z"  />
<glyph unicode="&#x16E;" horiz-adv-x="500" d="M300 722L185 192Q182 178 180 165T178 138Q178 102 196 79T262 56Q294 56 317 67T355 96T381 140T397 192L512 722H590L475 190Q466 146 448 110T401 47T334 5T247 -10Q169 -10 134 27T99 126Q99 141 101 157T107 190L222 722H300ZM376 855Q375 852 375 845Q375 827 387 815T418 802Q439 802 458 818T482 855Q483 858 483 865Q483 883 471 895T441 908Q420 908 401 892T376 855ZM334 855Q338 874 349 891T376 922T411 942T450 950Q485 950 505 929T526 875Q526 870 526 865T524 855Q520 835 509 818T483 788T448 768T409 760Q374 760 353 781T332 835Q332 840 332 845T334 855Z"  />
<glyph unicode="&#x16F;" horiz-adv-x="444" d="M372 0H304L316 57Q300 44 282 32T247 11T213 -4T183 -10Q139 -10 116 10T93 75Q93 97 99 126L184 520H256L173 136Q168 111 168 96Q168 50 211 50Q237 50 265 67T324 114L412 520H484L372 0ZM311 673Q310 670 310 663Q310 645 322 633T353 620Q374 620 393 636T417 673Q418 676 418 683Q418 701 406 713T376 726Q355 726 336 710T311 673ZM269 673Q273 692 284 709T311 740T346 760T385 768Q420 768 440 747T461 693Q461 688 461 683T459 673Q455 653 444 636T418 606T383 586T344 578Q309 578 288 599T267 653Q267 658 267 663T269 673Z"  />
<glyph unicode="&#x170;" horiz-adv-x="500" d="M300 722L185 192Q182 178 180 165T178 138Q178 102 196 79T262 56Q294 56 317 67T355 96T381 140T397 192L512 722H590L475 190Q466 146 448 110T401 47T334 5T247 -10Q169 -10 134 27T99 126Q99 141 101 157T107 190L222 722H300ZM471 760H421L548 898H626L471 760ZM355 760H307L426 898H506L355 760Z"  />
<glyph unicode="&#x171;" horiz-adv-x="444" d="M372 0H304L316 57Q300 44 282 32T247 11T213 -4T183 -10Q139 -10 116 10T93 75Q93 97 99 126L184 520H256L173 136Q168 111 168 96Q168 50 211 50Q237 50 265 67T324 114L412 520H484L372 0ZM405 578H355L482 716H560L405 578ZM289 578H241L360 716H440L289 578Z"  />
<glyph unicode="&#x172;" horiz-adv-x="500" d="M300 722L185 192Q182 178 180 165T178 138Q178 102 196 79T262 56Q294 56 317 67T355 96T381 140T397 192L512 722H590L475 190Q466 146 448 110T401 47T334 5L320 0Q316 -1 312 -3Q283 -16 256 -32T207 -69T180 -115Q179 -120 179 -124T178 -132Q178 -152 191 -160T227 -168Q241 -168 256 -164T287 -154T317 -140T342 -127L351 -159Q316 -180 273 -197T192 -214Q163 -214 142 -199T121 -151Q121 -140 124 -128Q132 -90 159 -64T224 -19Q234 -14 243 -10Q168 -9 134 27Q99 65 99 126Q99 141 101 157T107 190L222 722H300Z"  />
<glyph unicode="&#x173;" horiz-adv-x="444" d="M372 0H363Q352 -5 331 -13Q307 -23 283 -39T240 -79T221 -133Q221 -151 232 -159T264 -168Q288 -168 308 -160T353 -137L363 -169Q330 -190 302 -202T238 -214Q206 -214 185 -198T164 -150Q164 -119 179 -94T217 -49T265 -17Q289 -6 307 0H304L316 57Q300 44 282 32T247 11T213 -4T183 -10Q139 -10 116 10T93 75Q93 97 99 126L184 520H256L173 136Q168 111 168 96Q168 50 211 50Q237 50 265 67T324 114L412 520H484L372 0Z"  />
<glyph unicode="&#x174;" horiz-adv-x="611" d="M234 722L198 158H200L430 722H494L484 158H486L688 722H760L488 0H422L430 567H428L192 0H126L162 722H234ZM460 898H528L600 760H536L487 862L394 760H330L460 898Z"  />
<glyph unicode="&#x175;" horiz-adv-x="556" d="M198 520L189 138H191L358 520H426L429 138H431L582 520H650L430 0H370L367 404H365L188 0H128L130 520H198ZM394 716H462L534 578H470L421 680L328 578H264L394 716Z"  />
<glyph unicode="&#x176;" horiz-adv-x="444" d="M256 722L311 406L500 722H584L328 306L262 0H184L250 306L172 722H256ZM375 898H443L515 760H451L402 862L309 760H245L375 898Z"  />
<glyph unicode="&#x177;" horiz-adv-x="333" d="M188 520L200 122H202L368 520H442L213 11Q174 -75 125 -122T10 -170H-26L-13 -110H8Q51 -110 84 -81T140 4L114 520H188ZM283 716H351L423 578H359L310 680L217 578H153L283 716Z"  />
<glyph unicode="&#x178;" horiz-adv-x="444" d="M256 722L311 406L500 722H584L328 306L262 0H184L250 306L172 722H256ZM443 872H509L487 770H421L443 872ZM311 872H377L355 770H289L311 872Z"  />
<glyph unicode="&#x179;" horiz-adv-x="444" d="M556 722L544 668L146 66H414L400 0H44L56 56L445 656H209L224 722H556ZM396 760H346L473 898H551L396 760Z"  />
<glyph unicode="&#x17A;" horiz-adv-x="333" d="M151 520H421L411 472L115 60H321L309 0H23L34 54L322 460H138L151 520ZM293 578H243L370 716H448L293 578Z"  />
<glyph unicode="&#x17B;" horiz-adv-x="444" d="M556 722L544 668L146 66H414L400 0H44L56 56L445 656H209L224 722H556ZM388 872H454L432 770H366L388 872Z"  />
<glyph unicode="&#x17C;" horiz-adv-x="333" d="M151 520H421L411 472L115 60H321L309 0H23L34 54L322 460H138L151 520ZM289 690H355L333 588H267L289 690Z"  />
<glyph unicode="&#x17D;" horiz-adv-x="444" d="M556 722L544 668L146 66H414L400 0H44L56 56L445 656H209L224 722H556ZM281 898H345L394 796L487 898H551L421 760H353L281 898Z"  />
<glyph unicode="&#x17E;" horiz-adv-x="333" d="M151 520H421L411 472L115 60H321L309 0H23L34 54L322 460H138L151 520ZM186 716H250L299 614L392 716H456L326 578H258L186 716Z"  />
<glyph unicode="&#x192;" horiz-adv-x="444" d="M12 -100Q30 -110 52 -110Q65 -110 77 -107T103 -88T131 -42T167 44T214 182T277 386H189L202 446H294Q315 530 340 585T394 673T455 719T524 732Q536 732 548 731T571 728L557 664Q546 666 536 669T515 672Q493 672 476 666T442 636T407 568T366 446H452L439 386H349Q312 262 283 173T228 22T181 -78T135 -136T87 -163T33 -170Q25 -170 16 -169T-1 -166L12 -100Z"  />
<glyph unicode="&#x218;" horiz-adv-x="444" d="M440 536Q443 554 443 571Q443 613 424 639T357 666Q312 666 279 640T237 571Q234 557 234 544Q234 513 250 489T289 443T340 402T391 356T431 300T447 225Q447 202 441 174Q422 87 364 39T216 -10Q145 -10 108 30T71 138Q71 164 77 194H149Q145 174 145 152Q145 107 168 82T239 56Q288 56 323 86T371 175Q374 190 374 203Q374 235 358 260T319 307T268 352T217 398T177 453T161 522Q161 539 166 564Q174 602 193 633T240 686T302 720T376 732Q443 732 480 695T517 587Q517 575 516 563T512 536H440ZM254 -46L237 -123L174 -216H146L201 -123H164L181 -46H254Z"  />
<glyph unicode="&#x219;" horiz-adv-x="389" d="M357 388Q355 422 342 446T285 470Q259 470 239 452T214 408Q212 398 212 393Q212 372 224 356T255 324T295 295T335 262T366 222T379 168Q379 160 378 152T375 134Q368 103 352 77T312 32T261 1T201 -10Q130 -10 100 26T65 128L134 142Q136 125 140 109T153 79T175 58T209 50Q224 50 238 56T266 73T288 98T301 129Q302 134 302 138T303 148Q303 171 291 189T261 222T221 252T181 284T150 323T138 374Q138 387 141 404Q147 429 161 452T198 492T246 520T303 530Q363 530 392 498T421 406L357 388ZM224 -46L207 -123L144 -216H116L171 -123H134L151 -46H224Z"  />
<glyph unicode="&#x21A;" horiz-adv-x="389" d="M537 722L522 656H374L233 0H155L296 656H148L163 722H309H388H537ZM221 -46L204 -123L141 -216H113L168 -123H131L148 -46H221Z"  />
<glyph unicode="&#x21B;" horiz-adv-x="278" d="M120 520H190L228 694H300L262 520H358L345 460H249L170 96Q168 86 168 81Q168 64 178 54T211 44Q222 44 234 47T257 54L246 0Q229 -5 214 -7T175 -10Q134 -10 114 6T94 58Q94 76 100 102L177 460H107L120 520ZM182 -46L165 -123L102 -216H74L129 -123H92L109 -46H182Z"  />
<glyph unicode="&#x237;" horiz-adv-x="222" d="M-18 -106Q-12 -108 -7 -109T4 -110Q28 -110 44 -96T68 -46L190 520H262L138 -52Q124 -117 93 -143T7 -170Q-2 -170 -11 -169T-31 -166L-18 -106Z"  />
<glyph unicode="&#x2C6;" horiz-adv-x="222" d="M231 716H299L371 578H307L258 680L165 578H101L231 716Z"  />
<glyph unicode="&#x2C7;" horiz-adv-x="222" d="M130 716H194L243 614L336 716H400L270 578H202L130 716Z"  />
<glyph unicode="&#x2C9;" horiz-adv-x="222" d="M110 614L121 662H387L376 614H110Z"  />
<glyph unicode="&#x2D8;" horiz-adv-x="222" d="M173 710Q172 705 172 695Q172 661 193 646T251 630Q293 630 316 651T355 710H393Q375 649 333 616T230 582Q181 582 157 610T133 683Q133 690 133 696T135 710H173Z"  />
<glyph unicode="&#x2D9;" horiz-adv-x="222" d="M227 690H293L271 588H205L227 690Z"  />
<glyph unicode="&#x2DA;" horiz-adv-x="222" d="M203 673Q202 670 202 663Q202 645 214 633T245 620Q266 620 285 636T309 673Q310 676 310 683Q310 701 298 713T268 726Q247 726 228 710T203 673ZM161 673Q165 692 176 709T203 740T238 760T277 768Q312 768 332 747T353 693Q353 688 353 683T351 673Q347 653 336 636T310 606T275 586T236 578Q201 578 180 599T159 653Q159 658 159 663T161 673Z"  />
<glyph unicode="&#x2DB;" horiz-adv-x="222" d="M200 8Q179 1 150 -10T94 -36T45 -70T18 -115Q17 -120 17 -124T16 -132Q16 -152 29 -160T65 -168Q79 -168 94 -164T125 -154T155 -140T180 -127L189 -159Q154 -180 111 -197T30 -214Q1 -214 -20 -199T-41 -151Q-41 -140 -38 -128Q-30 -90 -3 -65T60 -23T134 3T202 18L200 8Z"  />
<glyph unicode="&#x2DC;" horiz-adv-x="222" d="M97 588Q101 604 110 621T132 653T161 676T195 686Q214 686 230 679T261 664Q276 656 289 649T316 642Q338 642 348 657T365 692H401Q396 674 388 656T368 625T340 603T302 594Q286 594 271 601T241 616Q226 624 212 631T184 638Q163 638 151 623T133 588H97Z"  />
<glyph unicode="&#x2DD;" horiz-adv-x="222" d="M285 578H235L362 716H440L285 578ZM169 578H121L240 716H320L169 578Z"  />
<glyph unicode="&#x394;" horiz-adv-x="667" d="M472 661L104 52H583L472 661ZM17 0L452 712H515L652 0H17Z"  />
<glyph unicode="&#x3A9;" horiz-adv-x="741" d="M436 0L474 179Q573 196 633 260T714 418Q720 448 720 475Q720 519 705 555T661 617T593 657T505 671Q451 671 399 653T305 601T232 521T190 419Q183 388 183 355Q183 286 219 238T330 179L292 0H47L57 48H258L277 140Q240 150 212 170T166 217T138 279T128 351Q128 386 135 418Q149 484 186 539T276 635T390 698T518 721Q573 721 620 704T702 655T756 580T776 483Q776 451 769 420Q758 371 735 326T679 244T603 180T509 140L490 48H691L681 0H436Z"  />
<glyph unicode="&#x3BC;" horiz-adv-x="444" d="M372 0H304L316 57Q300 44 282 32T247 11T213 -4T183 -10Q159 -10 143 -4L107 -170H35L184 520H256L173 136Q168 111 168 96Q168 50 211 50Q237 50 265 67T324 114L412 520H484L372 0Z"  />
<glyph unicode="&#x3C0;" horiz-adv-x="556" d="M534 10Q516 2 503 -1T472 -5Q436 -5 424 8T412 45Q412 59 414 75T421 108L489 428H215L125 0H72L162 428H93L103 476H628L617 428H543L473 97Q471 89 470 81T469 67Q469 56 475 49T498 42Q520 42 543 52L534 10Z"  />
<glyph unicode="&#x2013;" horiz-adv-x="500" d="M51 236L61 284H561L551 236H51Z"  />
<glyph unicode="&#x2014;" horiz-adv-x="1000" d="M51 236L61 284H1061L1051 236H51Z"  />
<glyph unicode="&#x2018;" horiz-adv-x="222" d="M177 488L199 588L290 732H320L241 582H281L261 488H177Z"  />
<glyph unicode="&#x2019;" horiz-adv-x="222" d="M306 722L284 622L193 478H163L241 628H201L222 722H306Z"  />
<glyph unicode="&#x201A;" horiz-adv-x="222" d="M170 94L148 -6L57 -150H27L106 0H66L86 94H170Z"  />
<glyph unicode="&#x201C;" horiz-adv-x="389" d="M177 488L199 588L290 732H320L241 582H281L261 488H177ZM344 488L366 588L457 732H487L408 582H448L428 488H344Z"  />
<glyph unicode="&#x201D;" horiz-adv-x="389" d="M473 722L451 622L360 478H330L408 628H368L389 722H473ZM306 722L284 622L193 478H163L241 628H201L222 722H306Z"  />
<glyph unicode="&#x201E;" horiz-adv-x="389" d="M337 94L315 -6L224 -150H194L273 0H233L253 94H337ZM170 94L148 -6L57 -150H27L106 0H66L86 94H170Z"  />
<glyph unicode="&#x2020;" horiz-adv-x="500" d="M193 552L348 528Q359 588 362 643T368 732H448Q442 715 434 693T416 644T397 588T380 528L545 552L528 474L373 498Q365 453 364 406T360 324Q347 294 333 248T304 146T274 31T243 -84H219Q228 -29 238 30T258 145T273 247T280 324Q287 341 295 362T311 405T327 451T341 498L176 474L193 552Z"  />
<glyph unicode="&#x2021;" horiz-adv-x="500" d="M528 474L373 498Q365 453 364 406T360 324Q353 307 345 286T328 243T312 196T298 150L463 174L446 96L291 120Q280 60 277 5T271 -84H191Q197 -68 205 -45T223 4T242 60T259 120L94 96L111 174L266 150Q274 195 276 242T280 324Q287 341 295 362T311 405T327 451T341 498L176 474L193 552L348 528Q359 588 362 643T368 732H448Q442 715 434 693T416 644T397 588T380 528L545 552L528 474Z"  />
<glyph unicode="&#x2022;" horiz-adv-x="500" d="M147 361Q155 398 176 431T227 488T292 527T366 541Q432 541 472 501T512 399Q512 390 511 381T508 361Q500 323 479 291T427 233T361 194T287 180Q255 180 229 190T183 220T154 265T143 321Q143 342 147 361Z"  />
<glyph unicode="&#x2026;" horiz-adv-x="1000" d="M562 94L542 0H458L478 94H562ZM895 94L875 0H791L811 94H895ZM229 94L209 0H125L145 94H229Z"  />
<glyph unicode="&#x2030;" horiz-adv-x="1000" d="M200 574Q198 569 198 564Q198 559 198 554Q198 524 217 503T272 482Q292 482 310 489T344 510T369 539T384 574Q385 579 385 583T386 593Q386 623 367 644T312 666Q292 666 274 659T240 638T215 609T200 574ZM772 148Q770 143 770 138Q770 133 770 128Q770 98 789 77T844 56Q864 56 882 63T916 84T941 113T956 148Q957 153 957 157T958 166Q958 196 938 218T883 240Q863 240 845 233T811 212T786 183T772 148ZM416 148Q414 143 414 138Q414 133 414 128Q414 98 433 77T488 56Q508 56 526 63T560 84T585 113T600 148Q601 153 601 157T602 166Q602 196 582 218T527 240Q507 240 489 233T455 212T430 183T416 148ZM716 732L141 -10H83L658 732H716ZM360 148Q366 178 384 204T426 251T480 284T540 296Q566 296 588 287T625 261T650 224T659 177Q659 163 656 148Q649 118 632 92T589 45T535 12T476 0Q450 0 428 9T391 34T366 71T357 118Q357 133 360 148ZM716 148Q722 178 740 204T782 251T836 284T896 296Q922 296 944 287T981 261T1006 224T1015 177Q1015 163 1012 148Q1005 118 988 92T945 45T891 12T832 0Q806 0 784 9T747 34T722 71T713 118Q713 133 716 148ZM144 574Q150 604 168 630T210 677T264 710T324 722Q350 722 372 713T409 687T434 650T443 603Q443 589 440 574Q434 544 416 518T373 471T319 438T260 426Q234 426 212 435T175 461T150 498T141 545Q141 559 144 574Z"  />
<glyph unicode="&#x2039;" horiz-adv-x="333" d="M218 106L128 260L285 414H353L192 260L286 106H218Z"  />
<glyph unicode="&#x203A;" horiz-adv-x="333" d="M91 106L253 260L158 414H226L317 260L159 106H91Z"  />
<glyph unicode="&#x2044;" horiz-adv-x="167" d="M-169 -10L430 732H492L-107 -10H-169Z"  />
<glyph unicode="&#x20AC;" horiz-adv-x="444" d="M544 577Q534 596 523 612T499 640T468 659T428 666Q391 666 364 649T316 602T280 534T254 455H487L459 395H239L219 303H415L387 243H209Q207 226 206 210T204 177Q204 150 209 128T225 90T255 65T303 56Q340 56 377 73T444 115L428 38Q396 14 359 2T285 -10Q240 -10 210 3T161 40T134 97T126 172Q126 189 127 206T131 243H67L95 303H140Q144 330 152 361L159 395H100L128 455H175Q191 510 213 560T268 649T343 709T444 732Q490 732 524 713T581 656L544 577Z"  />
<glyph unicode="&#x2113;" horiz-adv-x="500" d="M414 38Q350 -14 283 -14Q240 -14 213 7T186 73Q186 91 190 110L218 240L145 176H143L128 203L228 287L284 551Q293 593 309 625T345 678T390 710T438 721Q474 721 494 700T515 639Q515 623 510 598Q495 525 436 445T276 277L243 118Q239 102 239 87Q239 51 259 39T301 26Q322 26 346 35T397 65H399L414 38ZM467 593Q470 609 470 624Q470 652 459 668T429 684Q403 684 377 654T336 558L287 325Q360 394 407 463T467 593Z"  />
<glyph unicode="&#x2122;" horiz-adv-x="990" d="M516 668H382L302 299H236L316 668H182L194 722H328H394H528L516 668ZM570 299H504L596 722H661H701L757 401L951 722H990H1057L965 299H899L976 656H974L756 299H712L650 656H647L570 299Z"  />
<glyph unicode="&#x2126;" horiz-adv-x="741" d="M436 0L474 179Q573 196 633 260T714 418Q720 448 720 475Q720 519 705 555T661 617T593 657T505 671Q451 671 399 653T305 601T232 521T190 419Q183 388 183 355Q183 286 219 238T330 179L292 0H47L57 48H258L277 140Q240 150 212 170T166 217T138 279T128 351Q128 386 135 418Q149 484 186 539T276 635T390 698T518 721Q573 721 620 704T702 655T756 580T776 483Q776 451 769 420Q758 371 735 326T679 244T603 180T509 140L490 48H691L681 0H436Z"  />
<glyph unicode="&#x212E;" horiz-adv-x="600" d="M157 259V78Q216 19 302 19Q365 19 411 47T495 139L530 118Q507 82 484 57T433 15T373 -9T302 -17Q243 -17 196 4T114 63T62 151T44 259Q44 317 62 367T114 455T195 513T302 535Q360 535 407 515T489 458T542 371T561 259H157ZM448 295V440Q385 500 301 500Q217 500 157 440V295H448Z"  />
<glyph unicode="&#x2202;" horiz-adv-x="480" d="M516 365Q509 329 498 288T469 204T428 123T373 54T304 6T219 -12Q173 -12 141 7T91 57T68 128T72 211Q81 253 102 291T153 359T222 405T306 422Q357 422 396 397T458 331Q461 345 464 359T471 387Q480 430 482 480T472 573T431 644T347 673Q312 673 285 661T227 628L205 665Q240 692 277 706T355 721Q411 721 452 693Q488 668 506 631T530 549T531 458T516 365ZM440 275Q431 294 417 311T384 343T345 365T300 374Q265 374 236 360T184 324T146 271T123 210Q117 179 119 148T134 91T170 49T229 33Q274 33 308 57T369 119T412 198T440 275Z"  />
<glyph unicode="&#x2206;" horiz-adv-x="667" d="M472 661L104 52H583L472 661ZM17 0L452 712H515L652 0H17Z"  />
<glyph unicode="&#x220F;" horiz-adv-x="704" d="M577 -214V734H127V-214H73V786H631V-214H577Z"  />
<glyph unicode="&#x2211;" horiz-adv-x="593" d="M26 -214V-167L361 288L40 739V786H555V734H108L426 288L89 -163H567V-214H26Z"  />
<glyph unicode="&#x2212;" horiz-adv-x="600" d="M103 293H623L609 227H89L103 293Z"  />
<glyph unicode="&#x2215;" horiz-adv-x="167" d="M-169 -10L430 732H492L-107 -10H-169Z"  />
<glyph unicode="&#x2219;" horiz-adv-x="222" d="M118 260Q123 280 140 294T177 309Q194 309 205 298T217 270Q217 264 216 260Q211 240 194 226T156 211Q139 211 128 221T117 249Q117 256 118 260Z"  />
<glyph unicode="&#x221A;" horiz-adv-x="481" d="M281 -214H225L57 132L12 110L-7 150L81 193L247 -153L441 786H490L281 -214Z"  />
<glyph unicode="&#x221E;" horiz-adv-x="722" d="M682 250Q682 220 673 195T647 150T606 121T550 110Q522 110 496 119T447 144T403 178T362 215Q341 197 320 179T276 145T228 120T173 110Q143 110 119 120T77 149T50 193T40 247Q40 275 49 300T76 345T117 376T171 387Q200 387 226 377T275 350T320 314T362 276Q383 294 403 313T446 349T493 377T548 388Q578 388 602 378T645 349T672 305T682 250ZM634 246Q634 286 613 313T549 340Q528 340 507 331T466 307T428 276T395 246Q411 232 429 217T466 188T507 167T552 158Q591 158 612 183T634 246ZM328 246Q312 258 294 274T255 304T214 329T170 339Q132 339 110 311T88 247Q88 208 111 183T174 158Q194 158 215 166T257 188T295 217T328 246Z"  />
<glyph unicode="&#x222B;" horiz-adv-x="537" d="M395 742Q395 728 386 719T362 710Q348 710 341 716T331 729T324 743T315 750Q303 750 295 737T283 704T277 660T275 614T274 573T275 548V47Q275 27 275 0T272 -57T263 -114T243 -164T209 -200T158 -214Q137 -214 120 -203T103 -169Q103 -155 112 -146T135 -137Q155 -137 161 -149T175 -176Q179 -178 181 -178Q192 -178 199 -165T210 -132T216 -89T220 -44T221 -8T221 10V505Q221 526 220 555T220 616T227 677T244 732T278 771T334 786Q355 786 375 777T395 742Z"  />
<glyph unicode="&#x2248;" horiz-adv-x="600" d="M643 390Q635 365 622 342T591 301T550 272T498 261Q465 261 430 272T360 298T292 323T231 335Q195 335 169 310T130 252H92Q101 277 114 300T144 342T185 372T238 383Q271 383 306 372T375 346T443 321T506 309Q543 309 568 333T606 390H643ZM609 229Q601 204 588 181T557 140T515 111T464 100Q430 100 395 111T326 137T258 162T196 174Q160 174 134 149T96 91H58Q67 116 80 139T110 181T151 211T204 222Q237 222 272 211T342 185T410 160T472 148Q509 148 534 172T572 229H609Z"  />
<glyph unicode="&#x2260;" horiz-adv-x="600" d="M286 125L181 -16L144 7L233 125H77L87 173H269L369 308H116L126 356H406L514 501L551 479L459 356H623L613 308H424L322 173H584L574 125H286Z"  />
<glyph unicode="&#x2264;" horiz-adv-x="600" d="M106 260L117 314L655 507L644 453L178 287L573 121L562 67L106 260ZM45 -25L55 23H552L542 -25H45Z"  />
<glyph unicode="&#x2265;" horiz-adv-x="600" d="M65 67L76 121L542 287L147 453L158 507L614 314L603 260L65 67ZM45 -25L55 23H552L542 -25H45Z"  />
<glyph unicode="&#x25CA;" horiz-adv-x="593" d="M322 -35H269L102 356L269 747H322L491 356L322 -35ZM296 691L156 356L296 21L438 356L296 691Z"  />
<glyph unicode="&#xE301;" horiz-adv-x="222" d="M229 760H179L306 898H384L229 760Z"  />
<glyph unicode="&#xE302;" horiz-adv-x="222" d="M231 898H299L371 760H307L258 862L165 760H101L231 898Z"  />
<glyph unicode="&#xE303;" horiz-adv-x="222" d="M130 898H194L243 796L336 898H400L270 760H202L130 898Z"  />
<glyph unicode="&#xE304;" horiz-adv-x="222" d="M97 770Q101 786 110 803T132 835T161 858T195 868Q214 868 230 861T261 846Q276 838 289 831T316 824Q338 824 348 839T365 874H401Q396 856 388 838T368 807T340 785T302 776Q286 776 271 783T241 798Q226 806 212 813T184 820Q163 820 151 805T133 770H97Z"  />
<glyph unicode="&#xE306;" horiz-adv-x="222" d="M110 796L121 844H387L376 796H110Z"  />
<glyph unicode="&#xE307;" horiz-adv-x="222" d="M173 892Q172 887 172 877Q172 843 193 828T251 812Q293 812 316 833T355 892H393Q375 831 333 798T230 764Q181 764 157 792T133 865Q133 872 133 878T135 892H173Z"  />
<glyph unicode="&#xE308;" horiz-adv-x="222" d="M203 855Q202 852 202 845Q202 827 214 815T245 802Q266 802 285 818T309 855Q310 858 310 865Q310 883 298 895T268 908Q247 908 228 892T203 855ZM161 855Q165 874 176 891T203 922T238 942T277 950Q312 950 332 929T353 875Q353 870 353 865T351 855Q347 835 336 818T310 788T275 768T236 760Q201 760 180 781T159 835Q159 840 159 845T161 855Z"  />
<glyph unicode="&#xE309;" horiz-adv-x="222" d="M285 760H235L362 898H440L285 760ZM169 760H121L240 898H320L169 760Z"  />
<glyph unicode="&#xE30A;" horiz-adv-x="222" d="M227 872H293L271 770H205L227 872Z"  />
<glyph unicode="&#xE30B;" horiz-adv-x="222" d="M304 722L288 649L228 560H201L253 649H217L233 722H304Z"  />
<glyph unicode="&#xE30C;" horiz-adv-x="222" d="M139 -46L122 -123L59 -216H31L86 -123H49L66 -46H139Z"  />
<glyph unicode="&#xE30D;" horiz-adv-x="222" d="M201 578L214 642L268 716H292L246 642H278L265 578H201Z"  />
<glyph unicode="&#xFB01;" horiz-adv-x="444" d="M463 722H535L517 638H445L463 722ZM419 520H491L379 0H307L419 520ZM114 520H194L217 626Q228 679 257 705T346 732Q360 732 374 730T401 726L389 670Q373 678 351 678Q325 678 309 663T288 623L266 520H350L337 460H253L154 0H82L181 460H101L114 520Z"  />
<glyph unicode="&#xFB02;" horiz-adv-x="444" d="M463 722H535L379 0H307L463 722ZM114 520H194L217 626Q228 679 257 705T346 732Q360 732 374 730T401 726L389 670Q373 678 351 678Q325 678 309 663T288 623L266 520H350L337 460H253L154 0H82L181 460H101L114 520Z"  />

</font>
</defs>
</svg>
